<svg id="Capa_1" data-name="Capa 1" xmlns="http://www.w3.org/2000/svg" viewBox="0 0 29.52 29.52"><defs><style>.cls-1{fill:#3d3621;}</style></defs><title>icon wp</title><g id="gTlPS1"><path class="cls-1" d="M298.07,405.74h11.24a3.09,3.09,0,0,1,3.45,3.42v22.69c0,2.22-1.21,3.41-3.45,3.41H286.69a3.09,3.09,0,0,1-3.45-3.42V409.09a3.07,3.07,0,0,1,3.38-3.35Zm-10.53,25.32c.3-.06.49-.08.68-.13,1.52-.4,3-.82,4.58-1.18a1.85,1.85,0,0,1,1.07.08,11.64,11.64,0,0,0,3.81.93,10.55,10.55,0,1,0-9.2-6.77,4.2,4.2,0,0,1,.14,3.15C288.19,428.39,287.91,429.69,287.54,431.06Z" transform="translate(-283.24 -405.74)"/><path class="cls-1" d="M291.05,427.61c.21-.76.43-1.41.55-2.08a1.46,1.46,0,0,0-.13-1,8.09,8.09,0,1,1,8.86,3.51,7.74,7.74,0,0,1-5.88-.77,1.7,1.7,0,0,0-1.5-.18C292.37,427.32,291.76,427.44,291.05,427.61Zm9.67-2.1a3.35,3.35,0,0,0,2.5-.9,1.58,1.58,0,0,0-.37-2.72c-.46-.23-.93-.44-1.39-.66a.83.83,0,0,0-1.17.27,2,2,0,0,1-.53.6.76.76,0,0,1-.63.11,5.89,5.89,0,0,1-2.7-2.31.56.56,0,0,1,.07-.81,1.28,1.28,0,0,0,.27-1.69,10.92,10.92,0,0,1-.5-1.23,1.49,1.49,0,0,0-2.64-.44,3.3,3.3,0,0,0-.27,4.2,20.66,20.66,0,0,0,2.93,3.53A8,8,0,0,0,300.72,425.51Z" transform="translate(-283.24 -405.74)"/></g></svg>