<svg id="Capa_1" data-name="Capa 1" xmlns="http://www.w3.org/2000/svg" viewBox="0 0 29.98 29.98"><defs><style>.cls-1{fill:#3d3621;}</style></defs><title>icon youtube</title><g id="S73WOl"><path class="cls-1" d="M147.57,410.73V390.9c.11-.42.16-.86.31-1.27a5.53,5.53,0,0,1,4-3.63c.26-.07.53-.12.79-.17h19.83c.42.1.86.16,1.27.3a5.55,5.55,0,0,1,3.63,4c.07.27.11.54.17.81v19.88a3.38,3.38,0,0,0-.08.34,8.7,8.7,0,0,1-.22.88,5.54,5.54,0,0,1-4,3.63c-.24.07-.49.12-.73.18H152.6l-.36-.09a8.75,8.75,0,0,1-.88-.23,5.52,5.52,0,0,1-3.61-4C147.68,411.26,147.63,411,147.57,410.73Zm15.3-3.21c1.87-.08,4-.15,6.21-.26a2.09,2.09,0,0,0,1-.28,3.36,3.36,0,0,0,1.66-2.45,17,17,0,0,0,.18-2.14,38.58,38.58,0,0,0-.09-4.81,4.3,4.3,0,0,0-.58-2,2.15,2.15,0,0,0-1.51-1.11c-.5-.07-1-.09-1.53-.11a95,95,0,0,0-11.93,0,2.51,2.51,0,0,0-1.29.31,3.45,3.45,0,0,0-1.53,2.36,14,14,0,0,0-.19,2.33c0,1.47,0,2.94.09,4.4a4.09,4.09,0,0,0,.4,1.76,2.69,2.69,0,0,0,2.38,1.76C158.27,407.34,160.42,407.43,162.87,407.52Z" transform="translate(-147.57 -385.83)"/><path class="cls-1" d="M166.31,400.82l-5.6,3.73v-7.46Z" transform="translate(-147.57 -385.83)"/></g></svg>