<svg id="Capa_1" data-name="Capa 1" xmlns="http://www.w3.org/2000/svg" viewBox="0 0 29.42 29.42"><defs><style>.cls-1{fill:#3d3621;}</style></defs><title>icon insta</title><path class="cls-1" d="M283.44,420.37a73.08,73.08,0,0,1,.05-7.55,7.92,7.92,0,0,1,8-7c4.32,0,8.64,0,13,0A8.12,8.12,0,0,1,312.7,414q.1,6.57,0,13.13a8.14,8.14,0,0,1-8.15,8q-6.53.07-13.05,0a8.16,8.16,0,0,1-8.17-8.2c0-2.2,0-4.4,0-6.61Zm22.75,0a8.17,8.17,0,1,0-8,8.29A8.16,8.16,0,0,0,306.19,420.38Zm1.61-11.29a1.64,1.64,0,0,0-1.64,1.66,1.75,1.75,0,0,0,1.63,1.61,1.63,1.63,0,0,0,1.64-1.65A1.55,1.55,0,0,0,307.8,409.09Z" transform="translate(-283.33 -405.79)"/><path class="cls-1" d="M302.89,420.55a4.87,4.87,0,1,1-4.88-4.92A4.82,4.82,0,0,1,302.89,420.55Z" transform="translate(-283.33 -405.79)"/></svg>