<svg id="Capa_1" data-name="Capa 1" xmlns="http://www.w3.org/2000/svg" viewBox="0 0 364.11 18.59"><defs><style>.cls-1{fill:#3d3621;}</style></defs><title>head 1</title><g id="DiosdV"><path class="cls-1" d="M318.2,186.74a1.72,1.72,0,0,0-.07.21.6.6,0,0,0-.19.54c-.87,2.28-2,4.15-4.72,4.23a4.21,4.21,0,0,1-4.4-2.72,16.58,16.58,0,0,0,1.65.95,4.16,4.16,0,0,0,4.58-.47c1.33-1.14,1.32-2.69.87-4.18-1.55-5-7.67-6-11.05-3.41,2.9,3.2,3.2,5.82.88,7.64-1.49,1.17-3.05.88-4.28-.79.11,0,.23,0,.31,0,1.7.85,3,.73,3.77-.34.9-1.23.45-3.16-.95-4.51a2.12,2.12,0,0,0-3.44.08c-.86.88-1.77,1.71-2.71,2.51-2.79,2.4-5.51,4.91-8.46,7.11a13,13,0,0,1-9.45,2.75,6.5,6.5,0,0,1-5.49-4.3c2.48,2.49,5.37,3.67,8.88,2.5a13.57,13.57,0,0,0,3.93-1.82c3.45-2.64,6.77-5.44,10.14-8.18l-.48-.6-2.78,2.3a86.63,86.63,0,0,1-7.17,5.74,11.21,11.21,0,0,1-4.92,1.26,3.71,3.71,0,0,1-3.57-2.22c4,2.83,7.3.75,10.28-1.69,2.66-2.17,5-4.7,7.52-7.07,2.5-1,5.06-2,7.5-3.13,4.67-2.25,9.31-1.55,11.9,2.16a25.61,25.61,0,0,1,2.06,4.46C318.3,186.11,318.25,186.43,318.2,186.74Z" transform="translate(-106 -177.89)"/><path class="cls-1" d="M456.09,190c-3.48,1-5.18-3.6-10.34.41-.18.1-.62-.28-.95-.38-1.8-.56-3.6-1.58-5.4-1.58-27.83-.11-55.66-.07-83.49-.07h-.81c.12-.92.26-1.82.31-2.74h.94c27,0,54,0,81-.06,2.83,0,5.64-.91,8.48-1.26a10.12,10.12,0,0,1,2.68.43c.65.1,1.54.42,1.89.22,4.1-2.4,5.51-.59,8.24-.08,3.65.67,7.29,1.38,11.45,2.17C465,188.05,460.47,188.73,456.09,190Z" transform="translate(-106 -177.89)"/><path class="cls-1" d="M218.86,188.35h-1.77c-26.89,0-53.78,0-80.67.07-1.8,0-3.57,1.13-5.39,1.57-1.09.26-2.67.69-3.31.17-1.64-1.33-2.85-1-4.37,0a3.14,3.14,0,0,1-2.23.24c-4.92-1.07-9.82-2.24-15.12-3.47,1.45-.27,2.65-.49,3.86-.73,3.22-.65,10.2-3.26,13.21-2,4,1.65,2.4,2.26,5.66,1,1.48-.56,4.93.32,6.49.33,28,.06,55.91,0,83.86.08h.42A18.94,18.94,0,0,0,218.86,188.35Z" transform="translate(-106 -177.89)"/><path class="cls-1" d="M296.5,182.06c-2.87-3.08-6.25-3.34-9.95-1.77a31.53,31.53,0,0,0-9.34,6.71c-1.08,1-2.19,2-3.28,3l.42.45c1.07-.92,2.17-1.81,3.2-2.78,2.55-2.42,5-4.94,8.44-6.19,3.14-1.15,5.53-.44,7.43,2.61-4-3.7-7.31-1.92-10.3.47s-5.44,4.95-8.13,7.45l0,0c-2.5,1.05-5,2-7.48,3.18-4.31,2-8.14,1.7-11.07-1.11a9.6,9.6,0,0,1-2.7-6.71h-.05a.7.7,0,0,0,0-.38c.06-.26.14-.51.22-.77a.52.52,0,0,0,.23-.3.54.54,0,0,0,.24-.35,2.6,2.6,0,0,0,.58-.75,4.15,4.15,0,0,1,4.4-2.16,4.55,4.55,0,0,1,3.88,2.77c-.91-.46-1.56-.86-2.27-1.14a3.9,3.9,0,0,0-4.24.69A3.66,3.66,0,0,0,256,189c1.38,4.57,7.07,6.35,11.09,3.51-2.86-3.11-3.23-5.93-1-7.71,1.45-1.16,3.43-.78,4.62,1-.47-.23-.81-.55-1.12-.53-1,.07-2.27-.05-2.91.5a3.18,3.18,0,0,0-.5,2.72c.72,2.72,2.88,3.33,4.94,1.51,3.19-2.81,6.23-5.79,9.54-8.45,3-2.38,6.34-4,10.35-3.68a6.55,6.55,0,0,1,5.89,4.33A1.25,1.25,0,0,1,296.5,182.06Z" transform="translate(-106 -177.89)"/><rect class="cls-1" x="211.36" y="7.76" width="73.98" height="2.64"/><rect class="cls-1" x="74.92" y="7.76" width="73.98" height="2.64"/></g><ellipse class="cls-1" cx="31.09" cy="4.75" rx="1.32" ry="1.32"/><ellipse class="cls-1" cx="35.89" cy="4.75" rx="1.32" ry="1.32"/><ellipse class="cls-1" cx="40.21" cy="4.75" rx="1.32" ry="1.32"/><ellipse class="cls-1" cx="45.02" cy="4.75" rx="1.32" ry="1.32"/><ellipse class="cls-1" cx="49.82" cy="4.75" rx="1.32" ry="1.32"/><ellipse class="cls-1" cx="54.63" cy="4.75" rx="1.32" ry="1.32"/><ellipse class="cls-1" cx="58.95" cy="4.75" rx="1.32" ry="1.32"/><ellipse class="cls-1" cx="63.75" cy="4.75" rx="1.32" ry="1.32"/><ellipse class="cls-1" cx="68.08" cy="4.75" rx="1.32" ry="1.32"/><ellipse class="cls-1" cx="72.88" cy="4.75" rx="1.32" ry="1.32"/><ellipse class="cls-1" cx="77.21" cy="4.75" rx="1.32" ry="1.32"/><ellipse class="cls-1" cx="82.01" cy="4.75" rx="1.32" ry="1.32"/><ellipse class="cls-1" cx="86.81" cy="4.75" rx="1.32" ry="1.32"/><ellipse class="cls-1" cx="91.62" cy="4.75" rx="1.32" ry="1.32"/><ellipse class="cls-1" cx="95.94" cy="4.75" rx="1.32" ry="1.32"/><ellipse class="cls-1" cx="100.75" cy="4.75" rx="1.32" ry="1.32"/><ellipse class="cls-1" cx="105.07" cy="4.75" rx="1.32" ry="1.32"/><ellipse class="cls-1" cx="109.39" cy="4.75" rx="1.32" ry="1.32"/><ellipse class="cls-1" cx="114.2" cy="4.75" rx="1.32" ry="1.32"/><ellipse class="cls-1" cx="118.52" cy="4.75" rx="1.32" ry="1.32"/><ellipse class="cls-1" cx="123.32" cy="4.75" rx="1.32" ry="1.32"/><ellipse class="cls-1" cx="128.13" cy="4.75" rx="1.32" ry="1.32"/><ellipse class="cls-1" cx="132.93" cy="4.75" rx="1.32" ry="1.32"/><ellipse class="cls-1" cx="137.26" cy="4.75" rx="1.32" ry="1.32"/><ellipse class="cls-1" cx="142.06" cy="4.75" rx="1.32" ry="1.32"/><ellipse class="cls-1" cx="217.48" cy="3.8" rx="1.32" ry="1.32"/><ellipse class="cls-1" cx="222.29" cy="3.8" rx="1.32" ry="1.32"/><ellipse class="cls-1" cx="226.61" cy="3.8" rx="1.32" ry="1.32"/><ellipse class="cls-1" cx="231.41" cy="3.8" rx="1.32" ry="1.32"/><ellipse class="cls-1" cx="236.22" cy="3.8" rx="1.32" ry="1.32"/><ellipse class="cls-1" cx="241.02" cy="3.8" rx="1.32" ry="1.32"/><ellipse class="cls-1" cx="245.35" cy="3.8" rx="1.32" ry="1.32"/><ellipse class="cls-1" cx="250.15" cy="3.8" rx="1.32" ry="1.32"/><ellipse class="cls-1" cx="254.47" cy="3.8" rx="1.32" ry="1.32"/><ellipse class="cls-1" cx="259.28" cy="3.8" rx="1.32" ry="1.32"/><ellipse class="cls-1" cx="263.6" cy="3.8" rx="1.32" ry="1.32"/><ellipse class="cls-1" cx="268.41" cy="3.8" rx="1.32" ry="1.32"/><ellipse class="cls-1" cx="273.21" cy="3.8" rx="1.32" ry="1.32"/><ellipse class="cls-1" cx="278.01" cy="3.8" rx="1.32" ry="1.32"/><ellipse class="cls-1" cx="282.34" cy="3.8" rx="1.32" ry="1.32"/><ellipse class="cls-1" cx="287.14" cy="3.8" rx="1.32" ry="1.32"/><ellipse class="cls-1" cx="291.47" cy="3.8" rx="1.32" ry="1.32"/><ellipse class="cls-1" cx="295.79" cy="3.8" rx="1.32" ry="1.32"/><ellipse class="cls-1" cx="300.59" cy="3.8" rx="1.32" ry="1.32"/><ellipse class="cls-1" cx="304.92" cy="3.8" rx="1.32" ry="1.32"/><ellipse class="cls-1" cx="309.72" cy="3.8" rx="1.32" ry="1.32"/><ellipse class="cls-1" cx="314.52" cy="3.8" rx="1.32" ry="1.32"/><ellipse class="cls-1" cx="319.33" cy="3.8" rx="1.32" ry="1.32"/><ellipse class="cls-1" cx="323.65" cy="3.8" rx="1.32" ry="1.32"/><ellipse class="cls-1" cx="328.46" cy="3.8" rx="1.32" ry="1.32"/></svg>