<svg id="Capa_1" data-name="Capa 1" xmlns="http://www.w3.org/2000/svg" viewBox="0 0 234.39 87.1"><defs><style>.cls-1{fill:#fff;}.cls-2,.cls-7{fill:#cbb46d;}.cls-2,.cls-6{opacity:0.75;}.cls-3{fill:#ccb562;}.cls-4{fill:#231f20;}.cls-5{fill:none;stroke:#231f20;stroke-miterlimit:10;stroke-width:2px;}</style></defs><title>logo header </title><rect class="cls-1" y="0.33" width="234.15" height="86.67" rx="19.52"/><rect class="cls-2" x="0.05" width="234.34" height="87.1" rx="19.77"/><path class="cls-3" d="M227,282.05a37.49,37.49,0,1,0,37.48,37.48A37.53,37.53,0,0,0,227,282.05Zm-36.83,37.48A36.83,36.83,0,1,1,227,356.36,36.87,36.87,0,0,1,190.15,319.53Z" transform="translate(-179.92 -275.63)"/><path d="M227,357.16a37.63,37.63,0,1,1,37.63-37.63A37.67,37.67,0,0,1,227,357.16Zm0-75a37.34,37.34,0,1,0,37.34,37.34A37.38,37.38,0,0,0,227,282.19Zm0,74.32a37,37,0,1,1,37-37A37,37,0,0,1,227,356.51Zm0-73.66a36.69,36.69,0,1,0,36.68,36.68A36.72,36.72,0,0,0,227,282.85Z" transform="translate(-179.92 -275.63)"/><path class="cls-3" d="M259.84,319.68a32.39,32.39,0,1,0-32.39,32.39A32.43,32.43,0,0,0,259.84,319.68Zm-64.13,0a31.74,31.74,0,1,1,31.74,31.73A31.77,31.77,0,0,1,195.71,319.68Z" transform="translate(-179.92 -275.63)"/><path d="M227.45,352.22A32.54,32.54,0,1,1,260,319.68,32.58,32.58,0,0,1,227.45,352.22Zm0-64.78a32.24,32.24,0,1,0,32.24,32.24A32.28,32.28,0,0,0,227.45,287.44Zm0,64.12a31.88,31.88,0,1,1,31.88-31.88A31.91,31.91,0,0,1,227.45,351.56Zm0-63.47A31.59,31.59,0,1,0,259,319.68,31.62,31.62,0,0,0,227.45,288.09Z" transform="translate(-179.92 -275.63)"/><path class="cls-3" d="M234.18,352.8a.65.65,0,0,0-.5.78.66.66,0,0,0,.64.52l.14,0a.66.66,0,0,0,.5-.78A.65.65,0,0,0,234.18,352.8Z" transform="translate(-179.92 -275.63)"/><path class="cls-3" d="M232.15,285.9h.1a.66.66,0,0,0,.65-.55.65.65,0,0,0-.55-.75.66.66,0,0,0-.75.55A.68.68,0,0,0,232.15,285.9Z" transform="translate(-179.92 -275.63)"/><path class="cls-3" d="M201.89,296.24a.66.66,0,0,0,.45-1.13.65.65,0,0,0-.9.95A.63.63,0,0,0,201.89,296.24Z" transform="translate(-179.92 -275.63)"/><path class="cls-3" d="M235.91,286.69l.18,0a.65.65,0,0,0,.63-.48.67.67,0,0,0-.46-.81.66.66,0,0,0-.35,1.27Z" transform="translate(-179.92 -275.63)"/><path class="cls-3" d="M230.24,285.66h.06a.68.68,0,0,0,.66-.59.66.66,0,1,0-.72.59Z" transform="translate(-179.92 -275.63)"/><path class="cls-3" d="M226.39,285.51h0a.66.66,0,1,0,0-1.31.65.65,0,0,0-.64.67A.66.66,0,0,0,226.39,285.51Z" transform="translate(-179.92 -275.63)"/><path class="cls-3" d="M228.32,285.53h0a.66.66,0,0,0,.65-.63.66.66,0,1,0-1.31,0A.66.66,0,0,0,228.32,285.53Z" transform="translate(-179.92 -275.63)"/><path class="cls-3" d="M237.76,287.25a.71.71,0,0,0,.21,0,.65.65,0,0,0,.62-.45.66.66,0,0,0-.42-.83h0a.67.67,0,0,0-.84.41A.66.66,0,0,0,237.76,287.25Z" transform="translate(-179.92 -275.63)"/><path class="cls-3" d="M246.72,291.67a.66.66,0,0,0,.54-.29.65.65,0,1,0-.91.17A.63.63,0,0,0,246.72,291.67Z" transform="translate(-179.92 -275.63)"/><path class="cls-3" d="M244.73,290.49a.65.65,0,0,0,.9-.21.65.65,0,1,0-.9.21Z" transform="translate(-179.92 -275.63)"/><path class="cls-3" d="M248.3,292.83a.67.67,0,0,0,.52-.25.66.66,0,1,0-.92.11A.67.67,0,0,0,248.3,292.83Z" transform="translate(-179.92 -275.63)"/><path class="cls-3" d="M241.34,288.67a.55.55,0,0,0,.28.07.66.66,0,1,0-.6-.94A.65.65,0,0,0,241.34,288.67Z" transform="translate(-179.92 -275.63)"/><path class="cls-3" d="M243.06,289.54a.67.67,0,0,0,.31.07.64.64,0,1,0-.31-.07Z" transform="translate(-179.92 -275.63)"/><path class="cls-3" d="M239.57,287.91a.69.69,0,0,0,.24,0,.66.66,0,0,0,.61-.42.65.65,0,0,0-.37-.85.66.66,0,1,0-.48,1.22Z" transform="translate(-179.92 -275.63)"/><path class="cls-3" d="M203.28,294.86a.66.66,0,0,0,.48-1.1.65.65,0,0,0-.93,0,.66.66,0,0,0,0,.93A.65.65,0,0,0,203.28,294.86Z" transform="translate(-179.92 -275.63)"/><path class="cls-3" d="M206.29,292.35a.7.7,0,0,0,.39-.13.65.65,0,0,0,.14-.92.66.66,0,1,0-1.06.78A.65.65,0,0,0,206.29,292.35Z" transform="translate(-179.92 -275.63)"/><path class="cls-3" d="M207.89,291.22a.62.62,0,0,0,.37-.11.66.66,0,1,0-.73-1.09.66.66,0,0,0-.18.91A.64.64,0,0,0,207.89,291.22Z" transform="translate(-179.92 -275.63)"/><path class="cls-3" d="M209.56,290.18a.62.62,0,0,0,.33-.08.66.66,0,1,0-.66-1.14.66.66,0,0,0-.23.9A.64.64,0,0,0,209.56,290.18Z" transform="translate(-179.92 -275.63)"/><path class="cls-3" d="M249.81,294.08a.68.68,0,0,0,.5-.22.66.66,0,0,0-.07-.93h0a.66.66,0,1,0-.44,1.15Z" transform="translate(-179.92 -275.63)"/><path class="cls-3" d="M253.46,340.91h0a.66.66,0,0,0,.1.93.62.62,0,0,0,.41.14.65.65,0,0,0,.41-1.16A.64.64,0,0,0,253.46,340.91Z" transform="translate(-179.92 -275.63)"/><path class="cls-3" d="M204.75,293.56a.66.66,0,1,0-.42-1.16.66.66,0,0,0-.08.93A.66.66,0,0,0,204.75,293.56Z" transform="translate(-179.92 -275.63)"/><path class="cls-3" d="M222.47,285.79h.09a.66.66,0,0,0-.17-1.3.66.66,0,0,0-.57.73A.64.64,0,0,0,222.47,285.79Z" transform="translate(-179.92 -275.63)"/><path class="cls-3" d="M224.43,285.59h0a.65.65,0,1,0-.7-.6A.66.66,0,0,0,224.43,285.59Z" transform="translate(-179.92 -275.63)"/><path class="cls-3" d="M220.53,286.1h.12a.66.66,0,1,0-.76-.52A.65.65,0,0,0,220.53,286.1Z" transform="translate(-179.92 -275.63)"/><path class="cls-3" d="M214.87,287.68a.5.5,0,0,0,.23-.05.65.65,0,1,0-.46-1.22.65.65,0,0,0,.23,1.27Z" transform="translate(-179.92 -275.63)"/><path class="cls-3" d="M218.62,286.52l.15,0a.65.65,0,0,0,.48-.79A.65.65,0,1,0,218,286,.65.65,0,0,0,218.62,286.52Z" transform="translate(-179.92 -275.63)"/><path class="cls-3" d="M213.05,288.41a.65.65,0,1,0-.6-.39A.67.67,0,0,0,213.05,288.41Z" transform="translate(-179.92 -275.63)"/><path class="cls-3" d="M234,286.24h.14a.66.66,0,1,0-.64-.79A.65.65,0,0,0,234,286.24Z" transform="translate(-179.92 -275.63)"/><path class="cls-3" d="M260.48,328.58a.68.68,0,0,0-.82.45.65.65,0,0,0,.45.81.57.57,0,0,0,.18,0,.64.64,0,0,0,.63-.47A.66.66,0,0,0,260.48,328.58Z" transform="translate(-179.92 -275.63)"/><path class="cls-3" d="M260.94,326.68a.65.65,0,0,0-.79.49.64.64,0,0,0,.49.78.36.36,0,0,0,.14,0,.67.67,0,0,0,.65-.51A.65.65,0,0,0,260.94,326.68Z" transform="translate(-179.92 -275.63)"/><path class="cls-3" d="M261.52,322.8a.65.65,0,1,0-.15,1.3h.08a.65.65,0,0,0,.07-1.3Z" transform="translate(-179.92 -275.63)"/><path class="cls-3" d="M261.28,324.75a.65.65,0,0,0-.76.53.67.67,0,0,0,.54.76h.11a.65.65,0,0,0,.64-.55A.63.63,0,0,0,261.28,324.75Z" transform="translate(-179.92 -275.63)"/><path class="cls-3" d="M261.56,316.77a.66.66,0,0,0,0,1.32h0a.67.67,0,0,0,.61-.7A.65.65,0,0,0,261.56,316.77Z" transform="translate(-179.92 -275.63)"/><path class="cls-3" d="M261.64,320.84a.64.64,0,0,0-.68.62.65.65,0,0,0,.61.69h0a.66.66,0,0,0,0-1.31Z" transform="translate(-179.92 -275.63)"/><path class="cls-3" d="M261.66,318.73a.66.66,0,0,0-.65.66v.14a.65.65,0,0,0,.65.66.66.66,0,0,0,.66-.66.17.17,0,0,0,0-.07.19.19,0,0,0,0-.08A.66.66,0,0,0,261.66,318.73Z" transform="translate(-179.92 -275.63)"/><path class="cls-3" d="M259.91,330.47a.65.65,0,1,0-.44,1.23.93.93,0,0,0,.23,0,.65.65,0,0,0,.21-1.27Z" transform="translate(-179.92 -275.63)"/><path class="cls-3" d="M254.63,339.38a.65.65,0,0,0,.15.91.66.66,0,0,0,.38.12.65.65,0,1,0-.53-1Z" transform="translate(-179.92 -275.63)"/><path class="cls-3" d="M257.58,335.87A.66.66,0,1,0,257,337a.6.6,0,0,0,.31.08.67.67,0,0,0,.58-.33A.66.66,0,0,0,257.58,335.87Z" transform="translate(-179.92 -275.63)"/><path class="cls-3" d="M256.61,337.58a.64.64,0,0,0-.9.2.65.65,0,0,0,.2.91.74.74,0,0,0,.35.1.66.66,0,0,0,.35-1.21Z" transform="translate(-179.92 -275.63)"/><path class="cls-3" d="M259.24,332.31a.66.66,0,0,0-.51,1.21.8.8,0,0,0,.26.05.65.65,0,0,0,.6-.4A.66.66,0,0,0,259.24,332.31Z" transform="translate(-179.92 -275.63)"/><path class="cls-3" d="M258.46,334.12a.66.66,0,0,0-.88.3.68.68,0,0,0,.31.88.71.71,0,0,0,.28.06.63.63,0,0,0,.59-.37A.64.64,0,0,0,258.46,334.12Z" transform="translate(-179.92 -275.63)"/><path class="cls-3" d="M252.61,296.83a.66.66,0,0,0,.44-.17.66.66,0,0,0,0-.93.65.65,0,0,0-1,.88A.67.67,0,0,0,252.61,296.83Z" transform="translate(-179.92 -275.63)"/><path class="cls-3" d="M255.64,301.19a.68.68,0,0,0,.55.3.66.66,0,0,0,.56-1,.66.66,0,1,0-1.11.71Z" transform="translate(-179.92 -275.63)"/><path class="cls-3" d="M256.63,302.83a.66.66,0,0,0,.57.34.74.74,0,0,0,.33-.09.66.66,0,0,0,.24-.9.65.65,0,0,0-.89-.24A.67.67,0,0,0,256.63,302.83Z" transform="translate(-179.92 -275.63)"/><path class="cls-3" d="M254.56,299.59h0a.65.65,0,0,0,.53.27.66.66,0,0,0,.38-.12.65.65,0,1,0-.91-.15Z" transform="translate(-179.92 -275.63)"/><path class="cls-3" d="M251.25,295.41a.63.63,0,0,0,.47-.2.65.65,0,0,0-.94-.91.67.67,0,0,0,0,.93A.69.69,0,0,0,251.25,295.41Z" transform="translate(-179.92 -275.63)"/><path class="cls-3" d="M257.53,304.53a.66.66,0,0,0,.59.37.62.62,0,0,0,.29-.07.66.66,0,0,0,.3-.88.66.66,0,0,0-1.18.58Z" transform="translate(-179.92 -275.63)"/><path class="cls-3" d="M253.39,298.07h0a.63.63,0,0,0,.5.24.65.65,0,1,0-.5-.24Z" transform="translate(-179.92 -275.63)"/><path class="cls-3" d="M259,308.07a.67.67,0,0,0,.62.44.93.93,0,0,0,.22,0,.66.66,0,0,0,.39-.84.65.65,0,0,0-.83-.4A.66.66,0,0,0,259,308.07Z" transform="translate(-179.92 -275.63)"/><path class="cls-3" d="M260.5,313.65a.66.66,0,0,0,.65.54h.11a.66.66,0,0,0-.23-1.29A.66.66,0,0,0,260.5,313.65Z" transform="translate(-179.92 -275.63)"/><path class="cls-3" d="M258.33,306.28a.66.66,0,0,0,.61.4.74.74,0,0,0,.25-.05.65.65,0,0,0,.35-.86.66.66,0,0,0-1.21.51Z" transform="translate(-179.92 -275.63)"/><path class="cls-3" d="M260.61,311a.65.65,0,0,0,.14,1.29h.15a.66.66,0,0,0-.29-1.28Z" transform="translate(-179.92 -275.63)"/><path class="cls-3" d="M259.62,309.9a.67.67,0,0,0,.63.47.63.63,0,0,0,.19,0,.66.66,0,0,0-.37-1.26A.67.67,0,0,0,259.62,309.9Z" transform="translate(-179.92 -275.63)"/><path class="cls-3" d="M260.78,315.55a.66.66,0,0,0,.65.58h.08a.64.64,0,0,0,.57-.72.66.66,0,0,0-.73-.58A.65.65,0,0,0,260.78,315.55Z" transform="translate(-179.92 -275.63)"/><path class="cls-3" d="M211.28,289.25a.63.63,0,0,0,.3-.07.66.66,0,1,0-.3.07Z" transform="translate(-179.92 -275.63)"/><path class="cls-3" d="M224.61,353.48a.65.65,0,0,0-.7.61.67.67,0,0,0,.61.7h0a.66.66,0,0,0,.05-1.31Z" transform="translate(-179.92 -275.63)"/><path class="cls-3" d="M217.05,352.09a.65.65,0,0,0-.38,1.25.65.65,0,0,0,.19,0,.67.67,0,0,0,.63-.47A.66.66,0,0,0,217.05,352.09Z" transform="translate(-179.92 -275.63)"/><path class="cls-3" d="M215.23,351.47a.66.66,0,0,0-.84.4.65.65,0,0,0,.38.84.85.85,0,0,0,.23,0,.67.67,0,0,0,.61-.43A.66.66,0,0,0,215.23,351.47Z" transform="translate(-179.92 -275.63)"/><path class="cls-3" d="M222.69,353.29a.65.65,0,0,0-.73.57.66.66,0,0,0,.57.74h.09a.65.65,0,0,0,.64-.57A.66.66,0,0,0,222.69,353.29Z" transform="translate(-179.92 -275.63)"/><path class="cls-3" d="M213.44,350.76a.67.67,0,0,0-.87.34.66.66,0,1,0,.87-.34Z" transform="translate(-179.92 -275.63)"/><path class="cls-3" d="M220.79,353a.66.66,0,1,0-.23,1.29h.11a.66.66,0,0,0,.12-1.3Z" transform="translate(-179.92 -275.63)"/><path class="cls-3" d="M218.91,352.6a.65.65,0,1,0-.31,1.27.41.41,0,0,0,.15,0,.65.65,0,0,0,.16-1.29Z" transform="translate(-179.92 -275.63)"/><path class="cls-3" d="M204.33,345.82a.64.64,0,0,0,.09.91.6.6,0,0,0,.42.15.62.62,0,0,0,.5-.23.67.67,0,0,0-.08-.93A.66.66,0,0,0,204.33,345.82Z" transform="translate(-179.92 -275.63)"/><path class="cls-3" d="M211.69,349.94a.66.66,0,0,0-.88.29.65.65,0,0,0,.29.88.63.63,0,0,0,.3.07.65.65,0,0,0,.58-.36A.66.66,0,0,0,211.69,349.94Z" transform="translate(-179.92 -275.63)"/><path class="cls-3" d="M205.85,347.05a.67.67,0,0,0,.14.92.65.65,0,0,0,.39.13.67.67,0,0,0,.53-.26.66.66,0,0,0-1.06-.79Z" transform="translate(-179.92 -275.63)"/><path class="cls-3" d="M203.81,344.46a.65.65,0,0,0-.93,0,.65.65,0,0,0,.48,1.1.63.63,0,0,0,.48-.21.65.65,0,0,0,0-.93Z" transform="translate(-179.92 -275.63)"/><path class="cls-3" d="M210,349h0a.64.64,0,0,0-.89.23.66.66,0,0,0,.24.9.62.62,0,0,0,.32.09.68.68,0,0,0,.58-.33A.66.66,0,0,0,210,349Z" transform="translate(-179.92 -275.63)"/><path class="cls-3" d="M208.35,348a.65.65,0,0,0-.9.18.66.66,0,0,0,.18.91.61.61,0,0,0,.36.11.65.65,0,0,0,.36-1.2Z" transform="translate(-179.92 -275.63)"/><path class="cls-3" d="M232.29,353.15a.66.66,0,0,0-.55.75.66.66,0,0,0,.65.55h.1a.65.65,0,1,0-.2-1.29Z" transform="translate(-179.92 -275.63)"/><path class="cls-3" d="M244.83,348.5a.66.66,0,0,0,.35,1.22.76.76,0,0,0,.35-.09h0a.66.66,0,0,0-.7-1.12Z" transform="translate(-179.92 -275.63)"/><path class="cls-3" d="M243.17,349.47a.66.66,0,0,0-.27.89.67.67,0,0,0,.58.34.65.65,0,0,0,.31-.08.64.64,0,0,0,.27-.88A.66.66,0,0,0,243.17,349.47Z" transform="translate(-179.92 -275.63)"/><path class="cls-3" d="M239.7,351.11a.65.65,0,0,0,.24,1.26.69.69,0,0,0,.24-.05.66.66,0,0,0,.37-.85A.65.65,0,0,0,239.7,351.11Z" transform="translate(-179.92 -275.63)"/><path class="cls-3" d="M241.45,350.34a.66.66,0,0,0,.29,1.25.54.54,0,0,0,.27-.07.65.65,0,1,0-.56-1.18Z" transform="translate(-179.92 -275.63)"/><path class="cls-3" d="M248,346.31a.65.65,0,0,0-.1.92.63.63,0,0,0,.51.24.67.67,0,0,0,.41-.13.67.67,0,0,0,.11-.93A.66.66,0,0,0,248,346.31Z" transform="translate(-179.92 -275.63)"/><path class="cls-3" d="M246.44,347.45a.65.65,0,0,0,.38,1.19.68.68,0,0,0,.37-.12.66.66,0,0,0,.17-.91A.68.68,0,0,0,246.44,347.45Z" transform="translate(-179.92 -275.63)"/><path class="cls-3" d="M226.54,353.56h0a.64.64,0,0,0-.66.64.66.66,0,0,0,.65.67h0a.66.66,0,0,0,.66-.65A.64.64,0,0,0,226.54,353.56Z" transform="translate(-179.92 -275.63)"/><path class="cls-3" d="M230.38,353.4a.65.65,0,0,0-.59.71.66.66,0,0,0,.65.59h.07a.65.65,0,0,0,.58-.72A.64.64,0,0,0,230.38,353.4Z" transform="translate(-179.92 -275.63)"/><path class="cls-3" d="M228.46,353.53a.66.66,0,0,0,0,1.31h0a.64.64,0,0,0,.62-.68A.65.65,0,0,0,228.46,353.53Z" transform="translate(-179.92 -275.63)"/><path class="cls-3" d="M201.51,343.09a.66.66,0,0,0,.46,1.13.63.63,0,0,0,.45-.19.65.65,0,1,0-.91-.94Z" transform="translate(-179.92 -275.63)"/><path class="cls-3" d="M237.89,351.78a.64.64,0,0,0-.41.82.65.65,0,0,0,.62.45.76.76,0,0,0,.21,0,.66.66,0,0,0,.41-.84A.65.65,0,0,0,237.89,351.78Z" transform="translate(-179.92 -275.63)"/><path class="cls-3" d="M236.05,352.34a.65.65,0,0,0-.46.81.66.66,0,0,0,.63.48l.18,0a.67.67,0,0,0,.46-.81A.65.65,0,0,0,236.05,352.34Z" transform="translate(-179.92 -275.63)"/><path class="cls-3" d="M199.93,340.18a.63.63,0,0,0-.91-.11.65.65,0,0,0,.39,1.17.67.67,0,0,0,.4-.14A.65.65,0,0,0,199.93,340.18Z" transform="translate(-179.92 -275.63)"/><path class="cls-3" d="M193.23,311.5a.41.41,0,0,0,.16,0A.67.67,0,0,0,194,311h0a.66.66,0,1,0-.79.47Z" transform="translate(-179.92 -275.63)"/><path class="cls-3" d="M192.29,319.28h0a.65.65,0,0,0,.65-.64.66.66,0,0,0-1.31,0A.67.67,0,0,0,192.29,319.28Z" transform="translate(-179.92 -275.63)"/><path class="cls-3" d="M192.83,313.42l.12,0a.66.66,0,0,0,.13-1.31.67.67,0,0,0-.77.52A.66.66,0,0,0,192.83,313.42Z" transform="translate(-179.92 -275.63)"/><path class="cls-3" d="M192.54,315.36h.09a.66.66,0,0,0,.08-1.31.66.66,0,0,0-.17,1.3Z" transform="translate(-179.92 -275.63)"/><path class="cls-3" d="M194.35,307.74a.93.93,0,0,0,.23,0,.65.65,0,0,0,.61-.42.66.66,0,0,0-.38-.85.65.65,0,0,0-.84.38A.66.66,0,0,0,194.35,307.74Z" transform="translate(-179.92 -275.63)"/><path class="cls-3" d="M192.36,317.32h0a.66.66,0,1,0-.65-.71A.66.66,0,0,0,192.36,317.32Z" transform="translate(-179.92 -275.63)"/><path class="cls-3" d="M193.73,309.61a.68.68,0,0,0,.2,0,.65.65,0,0,0,.63-.45.67.67,0,0,0-.43-.83.66.66,0,1,0-.4,1.26Z" transform="translate(-179.92 -275.63)"/><path class="cls-3" d="M197.84,300.71a.59.59,0,0,0,.36.11.67.67,0,0,0,.55-.29.65.65,0,0,0-.19-.9.64.64,0,0,0-.9.17A.65.65,0,0,0,197.84,300.71Z" transform="translate(-179.92 -275.63)"/><path class="cls-3" d="M199.34,299.23a.65.65,0,0,0,.53-.27h0a.64.64,0,0,0-.12-.91.66.66,0,0,0-.92.13.67.67,0,0,0,.12.92A.79.79,0,0,0,199.34,299.23Z" transform="translate(-179.92 -275.63)"/><path class="cls-3" d="M195.07,305.91a.63.63,0,0,0,.27.06.65.65,0,0,0,.59-.39.66.66,0,0,0-.32-.87.66.66,0,0,0-.54,1.2Z" transform="translate(-179.92 -275.63)"/><path class="cls-3" d="M196.81,302.39a.72.72,0,0,0,.34.09.64.64,0,0,0,.56-.32.66.66,0,0,0-.23-.9.66.66,0,0,0-.67,1.13Z" transform="translate(-179.92 -275.63)"/><path class="cls-3" d="M195.89,304.13a.82.82,0,0,0,.3.07.64.64,0,0,0,.58-.36.65.65,0,0,0-.27-.88.66.66,0,1,0-.61,1.17Z" transform="translate(-179.92 -275.63)"/><path class="cls-3" d="M193.59,329a.66.66,0,0,0-.33-1.27.64.64,0,0,0-.47.8.66.66,0,0,0,.63.49Z" transform="translate(-179.92 -275.63)"/><path class="cls-3" d="M195.24,331.83a.65.65,0,0,0-.85-.37.65.65,0,0,0-.37.85.66.66,0,0,0,.61.41.67.67,0,0,0,.24,0A.65.65,0,0,0,195.24,331.83Z" transform="translate(-179.92 -275.63)"/><path class="cls-3" d="M197.77,337a.66.66,0,1,0-.56,1,.62.62,0,0,0,.34-.09A.65.65,0,0,0,197.77,337Z" transform="translate(-179.92 -275.63)"/><path class="cls-3" d="M196,333.6a.66.66,0,0,0-.88-.32.66.66,0,0,0,.28,1.25.66.66,0,0,0,.6-.93Z" transform="translate(-179.92 -275.63)"/><path class="cls-3" d="M196.83,335.32a.66.66,0,0,0-1.16.61.65.65,0,0,0,.58.36.87.87,0,0,0,.31-.07A.68.68,0,0,0,196.83,335.32Z" transform="translate(-179.92 -275.63)"/><path class="cls-3" d="M198.81,338.62a.68.68,0,0,0-.92-.17.67.67,0,0,0-.17.91.65.65,0,0,0,.54.29.68.68,0,0,0,.38-.12A.67.67,0,0,0,198.81,338.62Z" transform="translate(-179.92 -275.63)"/><path class="cls-3" d="M200.58,297.7a.65.65,0,0,0,.49-.23.66.66,0,1,0-.92.07A.64.64,0,0,0,200.58,297.7Z" transform="translate(-179.92 -275.63)"/><path class="cls-3" d="M192.74,325.14a.63.63,0,1,0-.09,0Z" transform="translate(-179.92 -275.63)"/><path class="cls-3" d="M192.31,321.24h0a.65.65,0,0,0,.63-.68.63.63,0,0,0-.67-.63.66.66,0,0,0,0,1.31Z" transform="translate(-179.92 -275.63)"/><path class="cls-3" d="M192.48,323.19a.64.64,0,0,0,.6-.7.66.66,0,1,0-.65.71Z" transform="translate(-179.92 -275.63)"/><path class="cls-3" d="M194.6,330a.66.66,0,1,0-.63.85.75.75,0,0,0,.21,0A.67.67,0,0,0,194.6,330Z" transform="translate(-179.92 -275.63)"/><path class="cls-3" d="M200.22,341.61a.65.65,0,0,0,.43,1.15.61.61,0,0,0,.42-.16.65.65,0,1,0-.85-1Z" transform="translate(-179.92 -275.63)"/><path class="cls-3" d="M193.11,327.07a.66.66,0,0,0-.26-1.29.66.66,0,0,0,.13,1.3Z" transform="translate(-179.92 -275.63)"/><path class="cls-3" d="M216.73,287a.62.62,0,0,0,.19,0,.66.66,0,0,0,.43-.82.65.65,0,0,0-1.25.38A.65.65,0,0,0,216.73,287Z" transform="translate(-179.92 -275.63)"/><path class="cls-3" d="M250.87,343.76a.65.65,0,0,0,0,.93.64.64,0,0,0,.47.19.63.63,0,0,0,.45-.19.65.65,0,0,0,0-.93A.67.67,0,0,0,250.87,343.76Z" transform="translate(-179.92 -275.63)"/><path class="cls-3" d="M253.13,342.32a.65.65,0,0,0-.92.05.66.66,0,0,0,0,.93.7.7,0,0,0,.44.17.64.64,0,0,0,.49-.22A.66.66,0,0,0,253.13,342.32Z" transform="translate(-179.92 -275.63)"/><path class="cls-3" d="M249.47,345.07a.65.65,0,0,0-.06.93.68.68,0,0,0,.49.22.62.62,0,0,0,.43-.16.66.66,0,0,0,.06-.93A.65.65,0,0,0,249.47,345.07Z" transform="translate(-179.92 -275.63)"/><path class="cls-4" d="M219.9,310.34s3.43-2.85,5-2.26a14.83,14.83,0,0,0,3.87.62,20.87,20.87,0,0,0,3,.18,8.84,8.84,0,0,0,2.86-.8l-1.86,2.84s-7.06-.09-8.53-.58A6.44,6.44,0,0,0,219.9,310.34Z" transform="translate(-179.92 -275.63)"/><path class="cls-3" d="M232.78,311h0c-.29,0-7.09-.11-8.55-.59a6.35,6.35,0,0,0-4.28,0l-.3.07.24-.2c.14-.12,3.48-2.86,5.07-2.27a12.7,12.7,0,0,0,3.34.58l.52,0,.64.06a15,15,0,0,0,2.32.12,8.8,8.8,0,0,0,2.75-.76l.3-.12Zm-10.51-1.1a5.82,5.82,0,0,1,2,.37c1.39.46,7.89.57,8.47.58l1.71-2.61a8.31,8.31,0,0,1-2.66.71,14.18,14.18,0,0,1-2.35-.11l-.64-.06-.51,0a12.6,12.6,0,0,1-3.38-.58c-1.27-.47-3.85,1.41-4.67,2A9.14,9.14,0,0,1,222.27,309.9Z" transform="translate(-179.92 -275.63)"/><path class="cls-4" d="M240.1,307.79l.68,2.94v.49s4.12-.88,4.61-.3l.49.59s.88-2.15.49-2.45a4.06,4.06,0,0,0-2.35-.59C242.84,308.47,240.59,308.47,240.1,307.79Z" transform="translate(-179.92 -275.63)"/><path class="cls-3" d="M245.9,311.65l-.57-.68c-.34-.4-2.89,0-4.53.32l-.09,0v-.58l-.77-3.29.22.3c.46.66,2.76.66,3.86.66a4,4,0,0,1,2.4.6c.41.32-.32,2.17-.47,2.54Zm-1.47-1c.5,0,.88.06,1,.23l.41.49c.34-.87.7-2.08.47-2.25a3.92,3.92,0,0,0-2.31-.57c-1.1,0-3.06,0-3.8-.54l.63,2.7v.42A21,21,0,0,1,244.43,310.65Z" transform="translate(-179.92 -275.63)"/><ellipse class="cls-1" cx="49.71" cy="39.26" rx="5.22" ry="5.92"/><ellipse class="cls-2" cx="49.71" cy="39.26" rx="5.22" ry="5.92"/><path class="cls-3" d="M229.63,320.91c-2.94,0-5.33-2.7-5.33-6s2.39-6,5.33-6,5.32,2.71,5.32,6S232.57,320.91,229.63,320.91Zm0-11.84c-2.82,0-5.11,2.61-5.11,5.81s2.29,5.81,5.11,5.81,5.1-2.6,5.1-5.81S232.44,309.07,229.63,309.07Z" transform="translate(-179.92 -275.63)"/><ellipse class="cls-1" cx="63.57" cy="38.62" rx="4.31" ry="4.89"/><ellipse class="cls-2" cx="63.57" cy="38.62" rx="4.31" ry="4.89"/><path class="cls-3" d="M243.49,319.25c-2.44,0-4.42-2.25-4.42-5a4.45,4.45,0,1,1,8.84,0C247.91,317,245.93,319.25,243.49,319.25Zm0-9.78a4.52,4.52,0,0,0-4.2,4.78c0,2.63,1.89,4.78,4.2,4.78a4.82,4.82,0,0,0,0-9.56Z" transform="translate(-179.92 -275.63)"/><path class="cls-3" d="M234.41,312.58l-.06-.13a7.18,7.18,0,0,1,5.17-.15l-.05.14A7.1,7.1,0,0,0,234.41,312.58Z" transform="translate(-179.92 -275.63)"/><path class="cls-3" d="M234.52,312.88l-.07-.13a6.66,6.66,0,0,1,5-.15l0,.13A6.5,6.5,0,0,0,234.52,312.88Z" transform="translate(-179.92 -275.63)"/><path class="cls-3" d="M222.27,313.44a.46.46,0,0,1-.46-.47.45.45,0,0,1,.46-.46.46.46,0,0,1,.47.46A.47.47,0,0,1,222.27,313.44Zm0-.79a.33.33,0,0,0-.32.32.32.32,0,0,0,.32.32.32.32,0,0,0,.32-.32A.32.32,0,0,0,222.27,312.65Z" transform="translate(-179.92 -275.63)"/><polyline class="cls-3" points="42.67 37.11 44.83 37.12 44.72 37.43 42.73 37.44"/><polyline class="cls-3" points="31.14 39.92 42.03 37.15 41.92 37.47 31.29 40.25"/><path class="cls-4" d="M239.45,316.17l.13.36c.09.24.22.56.37,1s.36.84.58,1.31c.12.24.24.47.38.71a4.45,4.45,0,0,0,.45.68,1.93,1.93,0,0,0,.27.3,1.6,1.6,0,0,0,.3.23,1.31,1.31,0,0,1,.36.27,1.42,1.42,0,0,1,.25.37,2.11,2.11,0,0,1,.14.8,3.66,3.66,0,0,1-.07.69,6,6,0,0,1-.27,1c-.09.23-.15.36-.15.36s0-.14.09-.38a8.82,8.82,0,0,0,.17-1,3.7,3.7,0,0,0,0-.67,1.88,1.88,0,0,0-.16-.69,1.18,1.18,0,0,0-.2-.28c0-.08-.22-.16-.3-.22a1.68,1.68,0,0,1-.37-.27,2.35,2.35,0,0,1-.3-.33,6.5,6.5,0,0,1-.83-1.46c-.11-.25-.2-.49-.28-.72s-.16-.45-.22-.65c-.13-.4-.21-.75-.27-1S239.45,316.17,239.45,316.17Z" transform="translate(-179.92 -275.63)"/><path class="cls-4" d="M234.74,322.26a2.58,2.58,0,0,0,.15,1,1,1,0,0,0,.26.42.77.77,0,0,0,.43.19,1.75,1.75,0,0,0,.51,0,4.76,4.76,0,0,0,.52-.1c.34-.09.69-.19,1-.3l1-.31.54-.13a2,2,0,0,1,.56-.07.38.38,0,0,1,.19,0,.26.26,0,0,1,.12.2.78.78,0,0,1-.05.31,2.87,2.87,0,0,1-.21.51q-.12.24-.27.48l-.31.44h0l-.29.28.24-.32h0l.25-.47.22-.49a3,3,0,0,0,.17-.5.58.58,0,0,0,0-.22s0,0,0,0,0,0-.07,0a2.17,2.17,0,0,0-.5.08l-.52.14-1,.32c-.35.1-.69.21-1.05.28a4.85,4.85,0,0,1-.55.09,2.17,2.17,0,0,1-.57,0,1,1,0,0,1-.52-.28,1.11,1.11,0,0,1-.27-.5A2.51,2.51,0,0,1,234.74,322.26Z" transform="translate(-179.92 -275.63)"/><path class="cls-4" d="M242.15,321.12a1.16,1.16,0,0,1-.09,1.4,16.9,16.9,0,0,1-2,1.74c-.39.27-1.68,1.28-1.68,1.28l.76.73s2.91-.65,3.34-3.31C242.51,322.59,242.45,321.22,242.15,321.12Z" transform="translate(-179.92 -275.63)"/><path class="cls-4" d="M239.07,326.43l-.94-.91.13-.1c.06,0,1.3-1,1.69-1.28a17.7,17.7,0,0,0,2-1.72,1,1,0,0,0,.08-1.22l-.23-.35.4.13c.46.16.43,1.8.39,2-.44,2.73-3.41,3.43-3.44,3.43Zm-.49-.88.58.56a4.28,4.28,0,0,0,3.14-3.17,2.74,2.74,0,0,0,0-.52.94.94,0,0,1-.16.2,17.88,17.88,0,0,1-2,1.76C239.81,324.59,238.92,325.28,238.58,325.55Z" transform="translate(-179.92 -275.63)"/><path class="cls-5" d="M246.59,322.67" transform="translate(-179.92 -275.63)"/><ellipse class="cls-4" cx="49.72" cy="39.28" rx="4.75" ry="5.39"/><path class="cls-3" d="M229.64,320.37c-2.66,0-4.82-2.45-4.82-5.46s2.16-5.46,4.82-5.46,4.82,2.45,4.82,5.46S232.3,320.37,229.64,320.37Zm0-10.77c-2.58,0-4.67,2.38-4.67,5.31s2.09,5.31,4.67,5.31,4.67-2.38,4.67-5.31S232.21,309.6,229.64,309.6Z" transform="translate(-179.92 -275.63)"/><ellipse class="cls-4" cx="63.57" cy="38.62" rx="3.91" ry="4.48"/><path class="cls-3" d="M243.49,318.79a4.59,4.59,0,1,1,4-4.55A4.29,4.29,0,0,1,243.49,318.79Zm0-9a4.45,4.45,0,1,0,3.84,4.4A4.16,4.16,0,0,0,243.49,309.84Z" transform="translate(-179.92 -275.63)"/><circle class="cls-3" cx="42.35" cy="37.34" r="0.16"/><path class="cls-3" d="M205.91,319.72s-.1.16-.27.39-.41.52-.65.8l-1,1.14a2.08,2.08,0,0,1,.17-.45,4.73,4.73,0,0,1,.58-.88,5.64,5.64,0,0,1,.76-.73A2.64,2.64,0,0,1,205.91,319.72Z" transform="translate(-179.92 -275.63)"/><path class="cls-3" d="M205.06,318.29l.2.34c.11.21.27.48.44.74a7.77,7.77,0,0,0,.51.69l.19.21.08.07-.09,0-.24-.17c-.09-.09-.19-.18-.29-.3a3.58,3.58,0,0,1-.28-.37,4.46,4.46,0,0,1-.4-.78C205.1,318.44,205.06,318.29,205.06,318.29Z" transform="translate(-179.92 -275.63)"/><path class="cls-4" d="M221.66,300.53s-8.43-2.06-15.79,2.55c0,0-4.6,5.39-4.31,10.1s.78,7.45,2,8.43l2.45-2.84s5.89-3.92,8.92-4.41C214.89,314.36,215.58,304.75,221.66,300.53Z" transform="translate(-179.92 -275.63)"/><path class="cls-3" d="M221.66,300.53a19.67,19.67,0,0,0-2-.3c-.34,0-.68-.05-1-.08l-1,0h-1l-1,.05c-.34,0-.68.07-1,.1s-.67.08-1,.14-.67.09-1,.17l-1,.22-1,.28-.48.15-.48.18c-.32.12-.64.23-1,.36l-.93.43-.45.22-.44.25-.89.51,0,0a21.88,21.88,0,0,0-1.46,2c-.23.35-.45.7-.66,1.06s-.41.72-.6,1.09-.37.74-.53,1.13-.3.77-.45,1.15c-.07.2-.12.4-.18.59a4.39,4.39,0,0,0-.15.6l-.13.61c0,.2-.05.41-.07.61l0,.31v.3c0,.21,0,.41,0,.62l.09,1.24c.07.83.14,1.66.25,2.49.06.41.12.82.2,1.22a11.81,11.81,0,0,0,.27,1.21,6.27,6.27,0,0,0,.41,1.15,2.81,2.81,0,0,0,.69,1l-.2,0,2.46-2.84h0c1.4-.92,2.83-1.77,4.31-2.56.37-.2.74-.38,1.12-.57l.57-.26c.19-.1.38-.18.57-.26l.59-.23.59-.22.6-.18.63-.13-.09.1c.06-.67.16-1.32.28-2s.26-1.3.43-1.94.36-1.28.57-1.9.46-1.25.73-1.85a17.74,17.74,0,0,1,2-3.42c.21-.26.41-.52.64-.77s.45-.48.68-.71a9.19,9.19,0,0,1,.74-.66C221.12,300.91,221.4,300.73,221.66,300.53Zm0,0c-.26.2-.53.39-.78.61s-.49.44-.73.67-.46.47-.67.73-.41.51-.61.77a17.59,17.59,0,0,0-1.94,3.43,23.8,23.8,0,0,0-1.25,3.74c-.16.64-.3,1.29-.42,1.93s-.2,1.3-.26,1.95v.09l-.09,0-.6.13-.59.18-.58.22-.57.24-.57.25c-.19.09-.38.17-.56.27l-1.11.57c-1.47.78-2.89,1.64-4.28,2.55l0,0-2.44,2.85-.09.1-.11-.09a3,3,0,0,1-.77-1.05,7.47,7.47,0,0,1-.43-1.2c-.12-.41-.2-.82-.28-1.23s-.14-.83-.19-1.25c-.11-.83-.18-1.66-.25-2.49l-.08-1.25c0-.22,0-.43,0-.64v-.32l0-.32c0-.21,0-.42.07-.63l.13-.62a6.06,6.06,0,0,1,.16-.61c.07-.2.12-.4.19-.6.15-.4.28-.8.46-1.18s.35-.76.54-1.14.4-.74.61-1.1.44-.71.67-1.06a23,23,0,0,1,1.5-2v0h0l.9-.51.45-.25.47-.22.93-.42c.32-.13.65-.24,1-.36l.48-.17.49-.14,1-.28,1-.21c.33-.08.67-.11,1-.16s.68-.1,1-.12.68-.07,1-.08l1,0h1l1,.06c.34,0,.68,0,1,.1A17,17,0,0,1,221.66,300.53Z" transform="translate(-179.92 -275.63)"/><path class="cls-4" d="M207.25,301.61s4.9-2.26,8.14-2.35a17,17,0,0,1,6.57.88,11.24,11.24,0,0,1,4-3c2.05-.69,8-2.06,12.35.69a27.33,27.33,0,0,1,3.22,2.35,6.8,6.8,0,0,1,2.49,3.41c.4,1.47.59,3.25.91,4.75,0,0,3-3.45,3.38-4.53a25.08,25.08,0,0,0,.88-4.42s-4.11-1.37-5.68-2.64-3.24-3.44-4.32-4.12-6.08-2.65-9.7-2.16-7.46.2-11.28,1.77S208.13,298.47,207.25,301.61Z" transform="translate(-179.92 -275.63)"/><path class="cls-3" d="M207.25,301.61a36.94,36.94,0,0,1,3.53-1.39c.6-.2,1.2-.39,1.82-.55.3-.08.61-.15.92-.21s.63-.13.94-.16a7.63,7.63,0,0,1,.95-.09c.32,0,.63,0,1,0,.64,0,1.27,0,1.9.08s1.27.14,1.89.26l.93.21a6.15,6.15,0,0,1,.91.32l-.09,0a13.64,13.64,0,0,1,1.36-1.38,11.23,11.23,0,0,1,1.57-1.17,6.68,6.68,0,0,1,1.8-.73c.63-.18,1.26-.32,1.9-.44a19.26,19.26,0,0,1,3.87-.32,13.07,13.07,0,0,1,3.83.63,9.84,9.84,0,0,1,1.79.79c.57.33,1.1.69,1.63,1.06s1,.76,1.55,1.17,1,.84,1.45,1.3a6.25,6.25,0,0,1,1.16,1.59,5.22,5.22,0,0,1,.35.93c.09.31.16.63.23,1,.27,1.27.42,2.55.69,3.8l-.23-.06c.55-.64,1.09-1.29,1.61-2a22.51,22.51,0,0,0,1.48-2,2.72,2.72,0,0,0,.27-.54c.07-.21.13-.4.18-.6.11-.41.2-.82.28-1.23s.17-.83.24-1.25l.1-.62a4.63,4.63,0,0,0,.06-.62l.1.14c-1-.33-1.91-.7-2.84-1.1a14.35,14.35,0,0,1-2.7-1.45,19.2,19.2,0,0,1-2.22-2.1l-1-1.09a9.45,9.45,0,0,0-1.12-1,6.9,6.9,0,0,0-1.33-.67c-.46-.2-.94-.38-1.41-.54a22.86,22.86,0,0,0-2.92-.78,15,15,0,0,0-3-.32,12.65,12.65,0,0,0-1.5.13c-.5.06-1,.1-1.52.14a57.79,57.79,0,0,0-6,.6,17.43,17.43,0,0,0-2.91.8,18.88,18.88,0,0,0-2.72,1.31,31.48,31.48,0,0,0-4.94,3.49,19.66,19.66,0,0,0-2.16,2.12A7.58,7.58,0,0,0,207.25,301.61Zm0,0a7.49,7.49,0,0,1,1.54-2.59,21.82,21.82,0,0,1,2.14-2.16,33.58,33.58,0,0,1,4.92-3.55,17.75,17.75,0,0,1,2.74-1.33,16.79,16.79,0,0,1,2.93-.82,56.11,56.11,0,0,1,6-.62l1.5-.15a11.15,11.15,0,0,1,1.53-.14,15.42,15.42,0,0,1,3,.31,23.3,23.3,0,0,1,3,.78c.48.16,1,.34,1.43.53a9.25,9.25,0,0,1,1.37.69,9.41,9.41,0,0,1,1.16,1l1.05,1.09a20.34,20.34,0,0,0,2.19,2.07,15,15,0,0,0,2.66,1.4c.92.4,1.87.76,2.82,1.08l.1,0v.1c0,.24,0,.44-.07.66l-.1.63c-.07.42-.15.84-.23,1.26s-.18.83-.29,1.24a5.61,5.61,0,0,1-.18.62,3.73,3.73,0,0,1-.3.6,23.83,23.83,0,0,1-1.51,2.07c-.53.66-1.07,1.32-1.63,2l-.18.21-.05-.27c-.27-1.27-.42-2.55-.68-3.81-.07-.32-.14-.62-.22-.94a6.63,6.63,0,0,0-.33-.88,6.17,6.17,0,0,0-1.11-1.53,17.7,17.7,0,0,0-1.43-1.29c-.49-.41-1-.79-1.53-1.16s-1.06-.74-1.61-1.06a9.35,9.35,0,0,0-1.74-.78,13.07,13.07,0,0,0-3.78-.63,19,19,0,0,0-3.83.3c-.63.11-1.26.25-1.88.42a7,7,0,0,0-1.77.72,10.05,10.05,0,0,0-1.54,1.14,14.55,14.55,0,0,0-1.36,1.36l0,0-.05,0a5.4,5.4,0,0,0-.88-.31c-.3-.08-.61-.16-.92-.22-.62-.12-1.24-.21-1.87-.27s-1.26-.1-1.89-.11h-1c-.31,0-.63,0-.94.08s-.62.09-.93.15l-.93.2c-.61.15-1.22.33-1.82.53A36.85,36.85,0,0,0,207.25,301.61Z" transform="translate(-179.92 -275.63)"/><path class="cls-1" d="M212.42,318.38s-1.69-5.52-5-3.53-1,5.73-1,5.73,1.4,1.25,1.47,1.69.51,2.21.51,2.21a12,12,0,0,0,2.36,1.84c.59.15,2.5-.66,2.57-1.4" transform="translate(-179.92 -275.63)"/><g class="cls-6"><path class="cls-7" d="M212.42,318.38s-1.69-5.52-5-3.53-1,5.73-1,5.73,1.4,1.25,1.47,1.69.51,2.21.51,2.21a12,12,0,0,0,2.36,1.84c.59.15,2.5-.66,2.57-1.4" transform="translate(-179.92 -275.63)"/></g><path class="cls-4" d="M212.42,318.38a10.33,10.33,0,0,0-.75-1.53,6.73,6.73,0,0,0-1-1.34,2.84,2.84,0,0,0-1.36-.82,2,2,0,0,0-.76,0,2.49,2.49,0,0,0-.74.25l-.17.1-.07,0-.09.06-.35.25a1.52,1.52,0,0,0-.29.27,2.27,2.27,0,0,0-.26.28l-.23.32c-.06.12-.11.24-.17.35a1.63,1.63,0,0,0-.13.37,1.05,1.05,0,0,0,0,.19l0,.19a1.72,1.72,0,0,0,0,.39,2.64,2.64,0,0,0,0,.4,4.42,4.42,0,0,0,.12.8,6.86,6.86,0,0,0,.24.77,6.18,6.18,0,0,0,.34.73l0-.06c.29.26.56.53.82.81a4.09,4.09,0,0,1,.39.44,2.93,2.93,0,0,1,.18.26.89.89,0,0,1,.15.34c.16.74.33,1.48.48,2.21l-.07-.11c.36.35.73.69,1.1,1,.19.17.38.33.58.48a2.73,2.73,0,0,0,.3.21.7.7,0,0,0,.29.14.47.47,0,0,0,.16,0h.17l.36-.07a6,6,0,0,0,.71-.25l.33-.17.32-.2a.81.81,0,0,0,.14-.12.86.86,0,0,0,.14-.13.74.74,0,0,0,.17-.33.8.8,0,0,1-.14.36.79.79,0,0,1-.12.15l-.14.14a3.5,3.5,0,0,1-.3.24l-.33.2a6.43,6.43,0,0,1-.71.32l-.38.11a1.33,1.33,0,0,1-.21,0h-.21a1,1,0,0,1-.41-.16,3.79,3.79,0,0,1-.34-.2l-.62-.46c-.41-.32-.79-.66-1.17-1l-.05,0,0-.08c-.19-.73-.37-1.47-.55-2.2a1,1,0,0,0-.09-.16c0-.07-.1-.13-.15-.2s-.24-.27-.36-.4-.53-.53-.8-.77l0,0,0,0a5.46,5.46,0,0,1-.39-.81,6.14,6.14,0,0,1-.27-.86,4.45,4.45,0,0,1-.13-.89,2.36,2.36,0,0,1,0-.46,2.45,2.45,0,0,1,0-.46l0-.23c0-.07,0-.14.07-.22a2.54,2.54,0,0,1,.15-.44c.08-.13.14-.27.22-.41l.28-.37a2.63,2.63,0,0,1,.33-.34,2.28,2.28,0,0,1,.34-.29l.36-.24.09-.06h.06l0,0,.2-.1a3.13,3.13,0,0,1,.89-.26,2.49,2.49,0,0,1,.94.06,3.22,3.22,0,0,1,1.48,1,6.44,6.44,0,0,1,.93,1.46A8.52,8.52,0,0,1,212.42,318.38Z" transform="translate(-179.92 -275.63)"/><path class="cls-1" d="M210.55,318.33a2.42,2.42,0,0,0-2-1.79s-1.32.22-1.54,1.18" transform="translate(-179.92 -275.63)"/><g class="cls-6"><path class="cls-7" d="M210.55,318.33a2.42,2.42,0,0,0-2-1.79s-1.32.22-1.54,1.18" transform="translate(-179.92 -275.63)"/></g><path class="cls-4" d="M210.55,318.33a3,3,0,0,0-.35-.6,2.4,2.4,0,0,0-.45-.5,2.48,2.48,0,0,0-.26-.19l-.29-.16a4.61,4.61,0,0,0-.63-.2h.05a4.05,4.05,0,0,0-.47.12,3.49,3.49,0,0,0-.44.2c-.07.05-.14.08-.21.14a1.29,1.29,0,0,0-.18.16l-.08.09a.61.61,0,0,0-.07.1,1.67,1.67,0,0,0-.12.23,1.1,1.1,0,0,1,.06-.26.31.31,0,0,1,0-.12l.06-.12a1.73,1.73,0,0,1,.17-.21,1.12,1.12,0,0,1,.2-.18,2.2,2.2,0,0,1,.47-.27,2.16,2.16,0,0,1,.51-.16h.05l.36.09a2.44,2.44,0,0,1,.34.14,2,2,0,0,1,.32.18,2.09,2.09,0,0,1,.28.24,2.15,2.15,0,0,1,.55.93A2,2,0,0,1,210.55,318.33Z" transform="translate(-179.92 -275.63)"/><path class="cls-4" d="M210.58,318.52l-1.25,2.36,1.4,1.62v.66l.59-1.55-.74-.59a5.86,5.86,0,0,0,0-2.69" transform="translate(-179.92 -275.63)"/><path class="cls-4" d="M210.58,318.52c-.18.41-.37.81-.56,1.21l-.59,1.2,0-.13c.49.53,1,1.06,1.43,1.6l0,0v.72l-.28-.05c.2-.52.39-1,.6-1.54l0,.15-.72-.61-.06-.05,0-.06a6.56,6.56,0,0,0,.19-1.33,5,5,0,0,0-.11-1.34,3.57,3.57,0,0,1,.18.66,5.05,5.05,0,0,1,.07.68,5.3,5.3,0,0,1,0,.69,5.43,5.43,0,0,1-.09.69l0-.11.75.57.07.06,0,.09c-.19.52-.38,1-.58,1.55l-.28.77V322.5l0,.09c-.47-.54-.92-1.09-1.37-1.64l-.05-.06,0-.06.66-1.16C210.12,319.29,210.34,318.9,210.58,318.52Z" transform="translate(-179.92 -275.63)"/><path class="cls-3" d="M222.08,300.22l-.25-.16c.08-.11,7.57-10.89,17.43-7.61l-.09.28C229.52,289.52,222.15,300.11,222.08,300.22Z" transform="translate(-179.92 -275.63)"/><path class="cls-3" d="M225.91,295.87l.29-.21c.19-.12.46-.31.79-.5s.73-.43,1.17-.64l.68-.31c.23-.11.48-.2.72-.29l.73-.25.73-.2c.24-.05.47-.1.69-.13l.63-.08h.53a2.49,2.49,0,0,1,.41,0l.36,0-.36,0a3.37,3.37,0,0,0-.4,0l-.52.07-.61.12c-.21.05-.43.12-.67.17l-.7.22-.72.25-.71.28-.68.29c-.44.19-.85.37-1.2.54l-.84.41Z" transform="translate(-179.92 -275.63)"/><path class="cls-3" d="M225,296.65s0,0,.08,0l.2-.13c.18-.12.42-.3.74-.49s.68-.4,1.09-.61a12.68,12.68,0,0,1,2.68-1,9.74,9.74,0,0,1,1.24-.21,6.16,6.16,0,0,1,.88-.05h.34l-.33.05-.87.16c-.35.07-.76.18-1.19.3s-.89.27-1.34.45-.89.35-1.3.53-.8.36-1.12.52l-.79.39-.23.1C225.06,296.66,225,296.66,225,296.65Z" transform="translate(-179.92 -275.63)"/><path class="cls-3" d="M223.28,298.69a2.5,2.5,0,0,1,.23-.31l.3-.31a4,4,0,0,1,.42-.37l.26-.19.29-.19a6.74,6.74,0,0,1,.64-.38c.24-.1.47-.24.73-.33s.51-.2.77-.28.53-.16.79-.22.52-.12.78-.16.5-.09.73-.11l.66-.06a3.7,3.7,0,0,1,.56,0h.81l-.38.06c-.23,0-.57.07-1,.14l-.65.11c-.23,0-.46.11-.71.15s-.5.12-.76.19-.51.14-.77.22-.51.17-.76.27-.48.2-.71.29-.45.21-.65.33l-.3.16-.26.17c-.17.11-.32.22-.45.32l-.33.27A2.67,2.67,0,0,0,223.28,298.69Z" transform="translate(-179.92 -275.63)"/><path class="cls-3" d="M223.56,298.17a2.48,2.48,0,0,1,.22-.3l.3-.32a4.28,4.28,0,0,1,.43-.36l.26-.2.28-.19c.2-.13.42-.25.65-.37a7.89,7.89,0,0,1,.72-.33c.26-.1.51-.2.78-.28a7.1,7.1,0,0,1,.79-.22,5.56,5.56,0,0,1,.77-.16,7,7,0,0,1,.74-.11l.66-.07a5.53,5.53,0,0,1,.56,0h.8l-.37.06c-.24,0-.57.07-1,.14l-.65.11-.72.15c-.24,0-.5.12-.75.18a6.82,6.82,0,0,0-.77.23c-.26.07-.51.17-.76.26s-.48.2-.72.3-.45.21-.65.32l-.29.17-.26.17-.46.32a3.42,3.42,0,0,0-.32.27C223.65,298.07,223.56,298.17,223.56,298.17Z" transform="translate(-179.92 -275.63)"/><path class="cls-3" d="M203,319.38s.13.22.3.54l.3.55c.11.2.22.42.34.63s.24.42.36.61l.34.51c0,.08.11.14.15.2a.92.92,0,0,0,.13.14l.11.13-.15-.08-.16-.11c-.06-.05-.14-.1-.2-.16l-.22-.22a2.65,2.65,0,0,1-.21-.26,3.21,3.21,0,0,1-.21-.3,3.37,3.37,0,0,1-.19-.32,6.37,6.37,0,0,1-.54-1.25A5,5,0,0,1,203,319.38Z" transform="translate(-179.92 -275.63)"/><path class="cls-3" d="M211.12,312.78s.12.22.29.56c.09.16.19.36.29.57l.32.65a3.36,3.36,0,0,0,.16.33l.16.32.3.56a3.46,3.46,0,0,0,.24.37l.11.14-.15-.1a.58.58,0,0,1-.15-.13l-.18-.18a3.83,3.83,0,0,1-.39-.53,5.79,5.79,0,0,1-.37-.65,7.89,7.89,0,0,1-.49-1.29A3.87,3.87,0,0,1,211.12,312.78Z" transform="translate(-179.92 -275.63)"/><path class="cls-3" d="M210.35,313.22s.13.22.3.55l.28.57c.11.21.21.44.32.66s.11.22.16.33l.16.32c.11.2.21.39.31.55a3.25,3.25,0,0,0,.24.38l.1.14-.14-.1a1.53,1.53,0,0,1-.16-.13,1.66,1.66,0,0,1-.18-.19,3.91,3.91,0,0,1-.39-.52,6.77,6.77,0,0,1-.36-.65,8.09,8.09,0,0,1-.5-1.3A6.17,6.17,0,0,1,210.35,313.22Z" transform="translate(-179.92 -275.63)"/><path class="cls-3" d="M204.6,317.69s.13.22.3.55l.28.58c.11.2.21.43.32.65l.16.33.16.32.3.55c.1.16.18.29.25.38l.1.14-.14-.1a1.53,1.53,0,0,1-.16-.13,1.11,1.11,0,0,1-.18-.19,3.2,3.2,0,0,1-.39-.52,6.77,6.77,0,0,1-.36-.65,8.39,8.39,0,0,1-.5-1.29C204.64,317.94,204.6,317.69,204.6,317.69Z" transform="translate(-179.92 -275.63)"/><path class="cls-3" d="M204.13,318.26s.11.23.26.57l.26.59c.1.21.2.44.31.66s.22.45.32.65l.33.54c0,.08.11.14.15.2a.67.67,0,0,0,.13.15l.11.14-.15-.09a.77.77,0,0,1-.17-.12,2.61,2.61,0,0,1-.2-.17l-.21-.23-.21-.28c-.06-.11-.14-.21-.19-.32l-.18-.34a6.81,6.81,0,0,1-.28-.7,5.08,5.08,0,0,1-.18-.62A5.19,5.19,0,0,1,204.13,318.26Z" transform="translate(-179.92 -275.63)"/><path class="cls-3" d="M203.62,318.81s.11.23.25.58l.25.6.29.67c.1.22.22.44.33.64s.12.2.17.29.12.17.17.25.11.13.15.2l.14.14.12.12-.16-.07a1.2,1.2,0,0,1-.17-.11A2.62,2.62,0,0,1,205,322a2.44,2.44,0,0,1-.22-.23,2,2,0,0,1-.21-.28,2.49,2.49,0,0,1-.2-.32,3.59,3.59,0,0,1-.17-.34,5.79,5.79,0,0,1-.44-1.34A4.2,4.2,0,0,1,203.62,318.81Z" transform="translate(-179.92 -275.63)"/><path class="cls-3" d="M213.86,311.81s.12.22.27.57c.08.17.16.37.25.59l.28.67a3.45,3.45,0,0,0,.14.34l.14.33c.09.22.18.41.26.58s.15.3.21.4l.09.14-.14-.11a.92.92,0,0,1-.14-.14l-.17-.2a5.94,5.94,0,0,1-.35-.55c-.11-.21-.21-.44-.31-.68a8.23,8.23,0,0,1-.42-1.32C213.89,312.06,213.86,311.81,213.86,311.81Z" transform="translate(-179.92 -275.63)"/><path class="cls-3" d="M212.83,312.12s.12.22.27.56c.08.17.18.37.27.58l.29.67.15.34.15.32c.1.21.19.41.28.57a3.89,3.89,0,0,0,.22.39l.1.14-.14-.1-.15-.14a1.77,1.77,0,0,1-.17-.2,3.6,3.6,0,0,1-.37-.54,5.8,5.8,0,0,1-.33-.66,7.57,7.57,0,0,1-.45-1.31A3.79,3.79,0,0,1,212.83,312.12Z" transform="translate(-179.92 -275.63)"/><path class="cls-3" d="M212.07,312.46s.11.22.26.57c.07.17.16.37.24.59l.28.68c0,.11.09.23.14.34l.13.33.26.58a4.14,4.14,0,0,0,.21.39l.09.15-.13-.11-.15-.14a1.92,1.92,0,0,1-.16-.21,3.48,3.48,0,0,1-.35-.55,6.9,6.9,0,0,1-.32-.67,9.57,9.57,0,0,1-.4-1.33A5.22,5.22,0,0,1,212.07,312.46Z" transform="translate(-179.92 -275.63)"/><path class="cls-3" d="M207.25,301.61a1.9,1.9,0,0,1,.09-.31,4.62,4.62,0,0,1,.37-.76,10.26,10.26,0,0,1,.67-1c.13-.17.28-.35.43-.52s.3-.35.46-.53l.49-.5c.16-.17.32-.32.48-.47.32-.31.64-.56.9-.8s.5-.4.66-.53l.25-.19-.86.79c-.25.24-.55.51-.86.82q-.24.22-.48.48c-.15.16-.32.33-.47.5l-.47.51c-.15.18-.3.35-.43.52-.27.34-.51.67-.7,1a7.31,7.31,0,0,0-.42.73A2.69,2.69,0,0,0,207.25,301.61Z" transform="translate(-179.92 -275.63)"/><path class="cls-4" d="M212.47,318.12s3,9.85,10.76,10.3,10.33-.63,10.33-.63,6,4.66,8.24-.59l2.21.48s3,7.21,2.64,12.43-1.54,9-5,11.32-10.49,1.7-13.9-.14c-3.6-2-6.69-3.16-9.48-7.43s-4.56-5.41-4.56-5.41C214.2,337.74,213.69,322.94,212.47,318.12Z" transform="translate(-179.92 -275.63)"/><path class="cls-3" d="M235.38,353.05a17.11,17.11,0,0,1-7.68-1.67l-1.34-.71c-3.08-1.61-5.73-3-8.19-6.75-2.74-4.19-4.51-5.36-4.52-5.37l-.1-.07.07-.09c.44-.63,0-15.37-1.25-20.24l.21-.06c0,.1,3,9.78,10.66,10.22s10.25-.61,10.28-.62l.06,0,0,0s3.17,2.43,5.68,1.77a3.62,3.62,0,0,0,2.39-2.31l0-.08,2.36.5,0,.06c0,.07,3,7.29,2.65,12.48-.42,5.94-1.88,9.25-5,11.41A11.65,11.65,0,0,1,235.38,353.05Zm-21.54-14.64c.37.27,2,1.59,4.52,5.39s5,5.08,8.1,6.68l1.35.71c3.53,1.91,10.47,2.41,13.78.15,3.1-2.11,4.54-5.37,4.95-11.24.35-4.9-2.34-11.66-2.61-12.32l-2.07-.45a3.81,3.81,0,0,1-2.49,2.36c-2.47.64-5.39-1.45-5.83-1.77-.43.16-3.13,1-10.32.61-4.07-.23-6.8-3-8.38-5.37a20.25,20.25,0,0,1-2-3.66C213.83,325.08,214.27,337,213.84,338.41Z" transform="translate(-179.92 -275.63)"/><path class="cls-3" d="M236.91,330.81s.11.25.27.72.39,1.12.63,1.93c.11.4.25.84.36,1.3s.25,1,.36,1.48.21,1,.31,1.59.17,1.1.26,1.65.12,1.12.17,1.67.07,1.09.08,1.62,0,1,0,1.52-.06.93-.11,1.35l-.18,1.14c0,.17-.06.32-.09.47l-.11.39-.19.74.14-.75.08-.4c0-.14,0-.3.07-.47l.12-1.13c0-.42,0-.87.06-1.35s0-1,0-1.51-.06-1-.09-1.6-.12-1.1-.19-1.65-.14-1.11-.24-1.65-.18-1.07-.29-1.58-.21-1-.32-1.48-.21-.9-.31-1.31c-.21-.81-.38-1.49-.52-2Z" transform="translate(-179.92 -275.63)"/><path class="cls-3" d="M235,331.12s.08.24.2.68.3,1.05.48,1.79c.08.38.18.79.27,1.22s.19.88.26,1.36l.13.72.1.75c.08.5.13,1,.19,1.52s.08,1,.12,1.53,0,1,0,1.48,0,.95,0,1.39l-.11,1.25c0,.38-.12.73-.17,1a7.32,7.32,0,0,1-.18.79l-.18.68.13-.7c0-.22.1-.48.12-.79l.12-1,.06-1.23v-1.38c0-.48,0-1-.06-1.48s-.08-1-.14-1.51-.1-1-.17-1.52l-.1-.74-.11-.72c-.15-.95-.3-1.83-.44-2.58l-.2-1-.17-.79Z" transform="translate(-179.92 -275.63)"/><path class="cls-3" d="M241.62,327.86l.35.43c.21.29.51.7.83,1.22.15.26.33.54.49.85s.34.63.5,1,.32.71.48,1.07.29.76.43,1.14l.38,1.15.3,1.14.24,1.07c.07.34.11.67.17,1s.1.57.12.82l.06.63.06.56-.11-.55-.12-.62c0-.25-.11-.52-.17-.81s-.13-.62-.22-1l-.28-1.06-.33-1.11-.37-1.14c-.15-.38-.28-.76-.43-1.13s-.28-.73-.44-1.07-.31-.68-.46-1-.3-.6-.44-.87-.28-.51-.41-.72-.23-.39-.33-.54Z" transform="translate(-179.92 -275.63)"/><path class="cls-3" d="M241.1,330.18s.46.68,1.05,1.75c.14.28.3.57.46.88s.33.64.48,1,.33.71.48,1.08.3.75.45,1.13.27.78.4,1.16.23.77.33,1.14.18.74.24,1.08.12.68.16,1,.06.59.08.84,0,.47,0,.64v.57l-.06-.56a5.9,5.9,0,0,0-.07-.64c0-.25-.09-.52-.14-.82s-.14-.62-.21-1-.19-.69-.28-1.06-.24-.74-.35-1.12-.26-.76-.4-1.14-.28-.77-.44-1.13-.29-.74-.45-1.09l-.44-1c-.14-.32-.29-.61-.42-.89-.26-.55-.48-1-.65-1.33Z" transform="translate(-179.92 -275.63)"/><path class="cls-3" d="M238.11,330.34s.14.26.36.73.53,1.15.86,2c.16.42.35.86.51,1.35s.36,1,.52,1.52.33,1.09.49,1.65.28,1.15.43,1.73.22,1.17.33,1.74.16,1.16.22,1.71.09,1.1.09,1.61,0,1,0,1.45l-.12,1.21,0,.27-.05.24-.09.42-.16.8.11-.81.06-.42,0-.25V347l.06-1.21c0-.44,0-.92,0-1.43s-.1-1-.14-1.59-.15-1.11-.23-1.69-.22-1.15-.35-1.73-.24-1.16-.41-1.72-.29-1.12-.46-1.65-.32-1-.48-1.52-.32-.94-.46-1.36l-.42-1.14c-.13-.34-.24-.63-.34-.87Z" transform="translate(-179.92 -275.63)"/><path class="cls-3" d="M230.62,331.1s.06.2.15.56.21.88.32,1.5q.09.48.18,1c0,.36.12.74.16,1.13s.08.81.11,1.22.06.85.08,1.27,0,.85,0,1.27,0,.83,0,1.23-.07.78-.12,1.14l-.18,1q-.1.46-.21.84a4.81,4.81,0,0,1-.21.64l-.2.55.15-.57a5.58,5.58,0,0,0,.15-.64l.16-.85.12-1c0-.36,0-.75.08-1.14s0-.8,0-1.21,0-.84,0-1.26,0-.84-.06-1.26-.06-.82-.1-1.21l-.11-1.14c0-.36-.09-.7-.13-1-.09-.63-.16-1.15-.22-1.52Z" transform="translate(-179.92 -275.63)"/><path class="cls-3" d="M239.61,330.45s.13.22.34.61.51,1,.84,1.65c.16.35.35.72.52,1.13s.36.82.53,1.27.35.92.52,1.39.32,1,.49,1.45.27,1,.4,1.47.23,1,.33,1.45.16.93.22,1.37.09.85.12,1.23,0,.74,0,1a2.12,2.12,0,0,1,0,.44l0,.37,0,.7V345a3.3,3.3,0,0,0,0-.44c0-.3-.06-.65-.09-1s-.11-.79-.17-1.22-.17-.88-.25-1.35-.23-.94-.34-1.43-.27-1-.42-1.46-.3-1-.47-1.44-.32-.94-.49-1.38-.34-.88-.5-1.29-.32-.79-.47-1.14c-.3-.7-.55-1.29-.74-1.69Z" transform="translate(-179.92 -275.63)"/><path class="cls-3" d="M233.27,331.32s.24.91.48,2.31c.05.35.12.72.17,1.12s.11.83.14,1.27.08.9.11,1.36,0,.94.06,1.41,0,.94,0,1.41,0,.92-.08,1.36-.08.87-.15,1.27-.13.78-.2,1.12-.16.66-.23.94a6.65,6.65,0,0,1-.23.71l-.21.61.16-.62a6.46,6.46,0,0,0,.17-.72c.05-.29.11-.6.18-.95s.09-.72.15-1.12.06-.82.1-1.26,0-.89.06-1.35,0-.93,0-1.4,0-.94,0-1.4-.05-.91-.09-1.35-.07-.86-.11-1.26-.08-.78-.12-1.13c-.08-.7-.15-1.28-.22-1.69Z" transform="translate(-179.92 -275.63)"/><path class="cls-3" d="M225.62,330.81s0,.15.13.44.18.68.28,1.17l.15.79c0,.28.11.58.15.89.09.62.16,1.28.21,1.94,0,.34,0,.67,0,1s0,.65,0,1,0,.61-.06.9l-.11.8c0,.25-.1.47-.14.67a4.48,4.48,0,0,1-.15.5l-.15.44.1-.45a4.38,4.38,0,0,0,.09-.51l.09-.67,0-.8,0-.89v-.95c0-.33,0-.66-.06-1,0-.65-.1-1.31-.17-1.93s-.13-1.19-.2-1.68-.13-.91-.18-1.19Z" transform="translate(-179.92 -275.63)"/><path class="cls-3" d="M228,328.78s.23.87.46,2.18c.05.33.12.69.17,1.07s.11.78.15,1.19.08.85.12,1.29.06.88.09,1.32,0,.9,0,1.33,0,.88,0,1.29,0,.83-.09,1.21-.08.74-.13,1.07-.12.63-.17.9-.12.49-.16.68l-.16.59.1-.6c0-.19.09-.42.11-.69s.07-.57.11-.9.06-.69.09-1.07,0-.78,0-1.2,0-.84,0-1.27,0-.88,0-1.33,0-.88-.06-1.32-.06-.86-.1-1.27l-.12-1.2c0-.38-.08-.73-.11-1.06-.09-.66-.15-1.22-.21-1.6Z" transform="translate(-179.92 -275.63)"/><path class="cls-3" d="M218.78,328.05s.05.14.13.41.18.63.29,1.09.21,1,.3,1.56c.05.29.09.59.12.89s.06.62.09.93,0,.62,0,.93,0,.61,0,.9,0,.58-.07.85l-.1.75-.14.62a4.65,4.65,0,0,1-.14.47l-.14.41.08-.42a2.75,2.75,0,0,0,.09-.48c0-.19.05-.4.08-.63l.06-.74,0-.83v-.89c0-.3,0-.61-.05-.92s0-.61-.08-.92-.06-.6-.1-.88c-.06-.58-.13-1.11-.21-1.57s-.12-.85-.18-1.11Z" transform="translate(-179.92 -275.63)"/><path class="cls-3" d="M220.84,329.41s0,.15.12.41.17.64.27,1.09.2,1,.28,1.57c0,.29.08.59.11.89s0,.62.07.93,0,.62,0,.93,0,.61,0,.9,0,.58-.07.84l-.11.75-.14.62c0,.19-.11.34-.14.47l-.14.41.08-.42c0-.13.07-.29.09-.48s0-.4.08-.62l.06-.75,0-.83v-.89c0-.3,0-.61,0-.91s0-.62-.06-.92-.05-.6-.09-.89c-.06-.57-.12-1.11-.18-1.57s-.12-.84-.16-1.11Z" transform="translate(-179.92 -275.63)"/><path class="cls-3" d="M223.34,330.62s.18.59.36,1.5c.08.45.18,1,.24,1.55,0,.29.07.59.09.89s0,.61.05.92,0,.62,0,.92,0,.6-.05.89,0,.57-.09.83l-.13.74c0,.22-.11.43-.16.61a4.17,4.17,0,0,1-.15.46l-.15.4.1-.41c0-.13.08-.29.1-.47s.06-.4.1-.62l.08-.73c0-.26,0-.54,0-.82l0-.88c0-.3,0-.61,0-.91s0-.61,0-.91,0-.59-.07-.88c0-.57-.09-1.1-.15-1.56s-.09-.83-.13-1.1Z" transform="translate(-179.92 -275.63)"/><path class="cls-3" d="M216.54,326l.14.42c.08.27.21.66.33,1.13s.25,1,.37,1.63c.05.3.12.61.16.93s.09.64.12,1,.06.65.09,1,0,.63,0,.94,0,.6,0,.88-.06.55-.08.79-.1.47-.14.66l-.06.27-.08.22-.15.43.09-.44.06-.23c0-.08,0-.17,0-.27s.06-.41.07-.66,0-.5,0-.77,0-.57,0-.88,0-.61-.06-.93-.05-.63-.09-.95c-.06-.65-.16-1.29-.25-1.89s-.18-1.15-.27-1.63-.16-.88-.22-1.16Z" transform="translate(-179.92 -275.63)"/><path class="cls-3" d="M214.44,323.34s.06.17.15.48.22.75.35,1.28.28,1.16.4,1.84c.06.34.13.69.18,1.05s.11.72.15,1.08.07.73.1,1.1,0,.71,0,1.06,0,.68,0,1,0,.62-.06.89a6.56,6.56,0,0,1-.12.75c0,.11,0,.21,0,.31l-.08.25-.14.49.09-.5.05-.26c0-.09,0-.2,0-.31l0-.35c0-.12,0-.25,0-.39s0-.57,0-.88,0-.64,0-1c0-.68-.09-1.41-.18-2.13s-.19-1.45-.29-2.12-.21-1.31-.31-1.85-.18-1-.24-1.3Z" transform="translate(-179.92 -275.63)"/><path class="cls-4" d="M239,325.24a5,5,0,0,0-6.57-.69c-4,2.36-4.61,5.59-7.85,5.89a5.05,5.05,0,0,1-5-2.75,6.93,6.93,0,0,0,4.12,5.4,7.5,7.5,0,0,0,3.55.35,25.32,25.32,0,0,0,4.14-.75c.81-.21,1.61-.45,2.41-.69a9.52,9.52,0,0,0,2.18-.86,10.81,10.81,0,0,0,1.67-1.42,4.6,4.6,0,0,0,1.24-1.63,1.55,1.55,0,0,0,.07-.31A23.11,23.11,0,0,0,239,325.24Z" transform="translate(-179.92 -275.63)"/><path class="cls-3" d="M239,325.24a5.47,5.47,0,0,0-1.14-.89c-.21-.12-.43-.21-.65-.31a4.22,4.22,0,0,0-.69-.21,5.52,5.52,0,0,0-.71-.11,5.77,5.77,0,0,0-.72,0,6,6,0,0,0-1.4.31,9,9,0,0,0-1.29.62l-.61.4-.58.42a14,14,0,0,0-1.1.94c-.34.33-.68.68-1,1s-.65.72-1,1.07a10.22,10.22,0,0,1-1.06,1,5,5,0,0,1-1.28.75,4.57,4.57,0,0,1-1.46.29H224l-.38,0a1.5,1.5,0,0,1-.37-.05c-.12,0-.25,0-.37-.06a5,5,0,0,1-1.38-.56,4.94,4.94,0,0,1-1.15-.93,5.71,5.71,0,0,1-.87-1.21l.27-.08a6.86,6.86,0,0,0,.43,1.58,7.49,7.49,0,0,0,.79,1.44,7.06,7.06,0,0,0,1.11,1.21,6.17,6.17,0,0,0,.66.48l.35.22.37.19a6,6,0,0,0,3.2.55,21.92,21.92,0,0,0,3.31-.44c.54-.11,1.09-.23,1.63-.38l1.61-.46c.54-.15,1.08-.3,1.61-.48a4.73,4.73,0,0,0,1.47-.74,11.81,11.81,0,0,0,1.27-1.09,6.15,6.15,0,0,0,1.1-1.24,1.84,1.84,0,0,0,.3-.76c0-.28,0-.56.06-.84C239,326.36,239,325.8,239,325.24Zm0,0c0,.56,0,1.12,0,1.68q0,.42,0,.84a1.93,1.93,0,0,1-.29.8,6.43,6.43,0,0,1-1.09,1.29,12.28,12.28,0,0,1-1.26,1.12,5.39,5.39,0,0,1-1.5.79c-.54.18-1.08.34-1.61.5l-1.61.48c-.55.15-1.09.28-1.64.4a20.94,20.94,0,0,1-3.35.47,9.69,9.69,0,0,1-1.7-.05,4.76,4.76,0,0,1-1.64-.52l-.38-.19-.36-.22a8.3,8.3,0,0,1-.7-.51,7.32,7.32,0,0,1-1.16-1.26,7,7,0,0,1-.82-1.49,6.78,6.78,0,0,1-.44-1.66l-.1-.81.37.73a5.32,5.32,0,0,0,.81,1.15,5.18,5.18,0,0,0,1.09.89,5.08,5.08,0,0,0,1.3.53l.35.06.35.05.35,0h.36a4.39,4.39,0,0,0,1.38-.27,4.89,4.89,0,0,0,1.21-.7,12.17,12.17,0,0,0,1-1l1-1.07c.33-.35.67-.69,1-1a14.16,14.16,0,0,1,1.12-.93l.6-.43.62-.38a7.27,7.27,0,0,1,1.33-.61,5.13,5.13,0,0,1,2.16-.28,4.16,4.16,0,0,1,.72.13,5.68,5.68,0,0,1,.7.22,6.48,6.48,0,0,1,.64.34A4.76,4.76,0,0,1,239,325.24Z" transform="translate(-179.92 -275.63)"/><path class="cls-4" d="M241.11,324.31l-.25.05c-.81.2-1.79.75-1.91,1.66a4,4,0,0,0,.79,3.18,9.6,9.6,0,0,0,5.74,2.06,5,5,0,0,0,3.64-2.46,2.1,2.1,0,0,1-1.64.73,2.5,2.5,0,0,1-1.1-.29,4.74,4.74,0,0,1-1.69-1.49c-.5-.67-.79-1.52-1.33-2.15a5.3,5.3,0,0,0-1.26-1.15A1.52,1.52,0,0,0,241.11,324.31Z" transform="translate(-179.92 -275.63)"/><path class="cls-3" d="M241.11,324.31a3.65,3.65,0,0,0-1,.34,2.66,2.66,0,0,0-.83.66,1.65,1.65,0,0,0-.33,1,4.68,4.68,0,0,0,0,1.06,4,4,0,0,0,.28,1,2.57,2.57,0,0,0,.6.85,4.26,4.26,0,0,0,.85.61c.31.17.63.32.95.46s.66.25,1,.36.68.21,1,.28a7.45,7.45,0,0,0,1,.19,4.61,4.61,0,0,0,.52,0l.24,0,.26-.05a6.05,6.05,0,0,0,1-.33,6.23,6.23,0,0,0,.92-.49,3.46,3.46,0,0,0,1.36-1.5l.22.13a2.18,2.18,0,0,1-1.18.7,2.3,2.3,0,0,1-1.35-.11,4.62,4.62,0,0,1-2-1.69,9.27,9.27,0,0,1-.65-1.14,5.35,5.35,0,0,0-.72-1.1,5.12,5.12,0,0,0-.94-.92,1.38,1.38,0,0,0-.58-.29A1.78,1.78,0,0,0,241.11,324.31Zm0,0a1.78,1.78,0,0,1,.65,0,1.42,1.42,0,0,1,.59.29,5.51,5.51,0,0,1,1,.91c.59.65.89,1.52,1.42,2.21a4.44,4.44,0,0,0,2,1.57,2.1,2.1,0,0,0,1.24.07,2.07,2.07,0,0,0,1-.65l.51-.6-.29.73a3.84,3.84,0,0,1-1.45,1.64,5.82,5.82,0,0,1-2,.85l-.27.05-.28,0a3.43,3.43,0,0,1-.56,0,7.62,7.62,0,0,1-1.06-.2,8.76,8.76,0,0,1-1-.31c-.34-.12-.68-.25-1-.4a8.74,8.74,0,0,1-1-.5,4.62,4.62,0,0,1-.86-.65,3.23,3.23,0,0,1-.85-2,4.78,4.78,0,0,1,0-1.07,1.73,1.73,0,0,1,.35-1,2.64,2.64,0,0,1,.84-.65A3.3,3.3,0,0,1,241.11,324.31Z" transform="translate(-179.92 -275.63)"/><path class="cls-4" d="M268.58,301.52a2.91,2.91,0,0,0,.82-1.11,5.64,5.64,0,0,0,.31-1.41v-2.22a6.91,6.91,0,0,0-.21-1.74,2.78,2.78,0,0,0-1-1.45h9.08c2.39,0,3.93.56,4.6,1.68a4,4,0,0,1,.62,2.1c0,1.81-1,3-3.07,3.6l-.24.09.25,0q4.58,1.09,4.41,5.83-.26,8.31-9.23,8.31h-6.13a4.92,4.92,0,0,0,.88-2.9V304a5.51,5.51,0,0,0-.31-1.37A2.91,2.91,0,0,0,268.58,301.52Zm5.12-1.34c.17.59.84.79,2,.61a5,5,0,0,0,2.54-1,3,3,0,0,0,.92-2.31,2.58,2.58,0,0,0-1.21-2.22,4.1,4.1,0,0,0-2.1-.67,7.84,7.84,0,0,0-2.18.21Zm0,1.3v10.86c0,1.09.47,1.64,1.42,1.64a4.68,4.68,0,0,0,4-2,8.33,8.33,0,0,0,1.43-5c-.12-2.09-.65-3.58-1.6-4.44a3.82,3.82,0,0,0-1.55-.8A5.28,5.28,0,0,1,273.7,301.48Z" transform="translate(-179.92 -275.63)"/><path class="cls-4" d="M296.9,307.27l-.88,0a1.88,1.88,0,0,0-.76-1.22,4.41,4.41,0,0,0-3.4-.63l-1,6.88a6.66,6.66,0,0,0-.06,1.58,2.14,2.14,0,0,0,.69,1.32h-3.82a5.83,5.83,0,0,0,1.26-2.9l.8-5.87a4.72,4.72,0,0,0-.68.76c-.25-1.88.13-3.22,1.14-4l.08-.76a5.9,5.9,0,0,0-.46-.88,2.64,2.64,0,0,0,.71-1.13c.11-.81.23-1.64.34-2.48l.33-2.51a2.49,2.49,0,0,0-.58-1.85h9.18q-.21.46-.39.9a1.46,1.46,0,0,0-.07.95l.8,5a1.85,1.85,0,0,0,.32.61,6,6,0,0,0,.44.48,2.48,2.48,0,0,0-.42,1.05l1.55,9.77a7.47,7.47,0,0,0,.38,1.58,3.55,3.55,0,0,0,.88,1.32H297a2.56,2.56,0,0,0,.65-1.32,5.27,5.27,0,0,0,0-1.58Zm-3.74-12.5-.67,5.74a2.3,2.3,0,0,0,.46,1.18,2.4,2.4,0,0,0-.67.84,4.73,4.73,0,0,1,2.39.71,5.25,5.25,0,0,1,1.93,1.93l-.33-2.31a2.83,2.83,0,0,0-.8-1.17,2.38,2.38,0,0,0,.42-1.22l-.75-5.7Z" transform="translate(-179.92 -275.63)"/><path class="cls-4" d="M306.51,301.52a2.77,2.77,0,0,0,1-1.43,6.85,6.85,0,0,0,.21-1.76v-1.55a6.91,6.91,0,0,0-.21-1.74,2.78,2.78,0,0,0-1-1.45h9a15.17,15.17,0,0,1,4.23.71,3,3,0,0,1,2.39,3.19,4,4,0,0,1-1.34,3.07,7,7,0,0,1-3,1.63l.88,7.89a5.81,5.81,0,0,0,.91,2.37,2.15,2.15,0,0,0,2.16,1.11,2.31,2.31,0,0,0,2.07-1.61,6.44,6.44,0,0,0-1.61-7c-.51-.45-.55-.81-.15-1.09a2.13,2.13,0,0,1,1.68-.19,4.74,4.74,0,0,1,2.16,1.24,4.9,4.9,0,0,1,1.34,3.14,7,7,0,0,1-1.17,4.85,5.12,5.12,0,0,1-4.28,2.33,6,6,0,0,1-5.48-2.73,12.44,12.44,0,0,1-2.24-5.91l-.46-4.32-1-.19-1-.23v10.48a6.15,6.15,0,0,0,.16,1.6,3.72,3.72,0,0,0,.8,1.3H306.8a4.92,4.92,0,0,0,.88-2.9v-7.63a6.91,6.91,0,0,0-.21-1.74A2.78,2.78,0,0,0,306.51,301.52Zm5.16-1.47q0,.72,1,1a4.32,4.32,0,0,0,2.12,0,4.91,4.91,0,0,0,2.14-1.09,3,3,0,0,0,1-2.39c-.05-1.35-.86-2.2-2.41-2.56a8.08,8.08,0,0,0-3.79-.17Z" transform="translate(-179.92 -275.63)"/><path class="cls-4" d="M328.66,301.52a2.91,2.91,0,0,0,.82-1.11,6.12,6.12,0,0,0,.31-1.41v-2.22a6.91,6.91,0,0,0-.21-1.74,2.78,2.78,0,0,0-1-1.45h9.07q3.6,0,4.6,1.68a3.9,3.9,0,0,1,.63,2.1c0,1.81-1,3-3.07,3.6l-.25.09.25,0q4.59,1.09,4.41,5.83-.24,8.31-9.23,8.31h-6.12a4.92,4.92,0,0,0,.88-2.9V304a6,6,0,0,0-.31-1.37A2.91,2.91,0,0,0,328.66,301.52Zm5.12-1.34c.16.59.84.79,2,.61a5.07,5.07,0,0,0,2.54-1,3,3,0,0,0,.92-2.31,2.56,2.56,0,0,0-1.22-2.22,4,4,0,0,0-2.09-.67,7.81,7.81,0,0,0-2.18.21Zm0,1.3v10.86c0,1.09.47,1.64,1.42,1.64a4.68,4.68,0,0,0,4-2,8.33,8.33,0,0,0,1.42-5c-.11-2.09-.64-3.58-1.59-4.44a3.82,3.82,0,0,0-1.55-.8A5.28,5.28,0,0,1,333.78,301.48Z" transform="translate(-179.92 -275.63)"/><path class="cls-4" d="M348.33,293.59H360.5l.8,6h-.8a8.21,8.21,0,0,0-1.72-3.67c-.73-.77-2-1.15-3.86-1.15h-1.76v6.29h5.45v.5a2.78,2.78,0,0,0-1,1.45,7,7,0,0,0-.21,1.74H357a4.59,4.59,0,0,0-.9-1.91,2.76,2.76,0,0,0-2-.61h-.92v10.11c0,1.15.75,1.72,2.26,1.72a4.58,4.58,0,0,0,3.84-1.51,14.61,14.61,0,0,0,2.08-3.73h1l-1.3,6.42H348a4.82,4.82,0,0,0,.92-2.9v-7.63a6.91,6.91,0,0,0-.21-1.74,2.78,2.78,0,0,0-1-1.45,2.77,2.77,0,0,0,1-1.43,6.85,6.85,0,0,0,.21-1.76v-2.85A3.07,3.07,0,0,0,348.33,293.59Z" transform="translate(-179.92 -275.63)"/><path class="cls-4" d="M365.87,301.52a2.77,2.77,0,0,0,1-1.43,6.85,6.85,0,0,0,.21-1.76v-1.55a6.91,6.91,0,0,0-.21-1.74,2.78,2.78,0,0,0-1-1.45h9a15.29,15.29,0,0,1,4.24.71,3.05,3.05,0,0,1,2.39,3.19,4,4,0,0,1-1.34,3.07,7,7,0,0,1-3,1.63l.88,7.89a5.64,5.64,0,0,0,.9,2.37,2.17,2.17,0,0,0,2.16,1.11,2.31,2.31,0,0,0,2.08-1.61,6.6,6.6,0,0,0,.4-2.84,6.47,6.47,0,0,0-2-4.15c-.5-.45-.55-.81-.14-1.09a2.1,2.1,0,0,1,1.67-.19,4.64,4.64,0,0,1,2.16,1.24,4.91,4.91,0,0,1,1.35,3.14,7.1,7.1,0,0,1-1.18,4.85,5.1,5.1,0,0,1-4.28,2.33,6,6,0,0,1-5.47-2.73,12.56,12.56,0,0,1-2.25-5.91l-.46-4.32-1-.19c-.34-.07-.66-.15-1-.23v10.48a6.09,6.09,0,0,0,.17,1.6,3.57,3.57,0,0,0,.8,1.3h-5.84a4.92,4.92,0,0,0,.88-2.9v-7.63a6.91,6.91,0,0,0-.21-1.74A2.78,2.78,0,0,0,365.87,301.52Zm5.16-1.47c0,.48.32.81,1,1a4.28,4.28,0,0,0,2.11,0,4.86,4.86,0,0,0,2.14-1.09,3,3,0,0,0,1-2.39,2.66,2.66,0,0,0-2.41-2.56,8.12,8.12,0,0,0-3.8-.17Z" transform="translate(-179.92 -275.63)"/><path class="cls-4" d="M399.88,299.13V299a6,6,0,0,0-1.08-2.89,3,3,0,0,0-2.6-1.39,2.19,2.19,0,0,0-1.69.69,2.45,2.45,0,0,0-.63,1.7c0,1.18.94,2.07,2.82,2.69a3,3,0,0,0,2.24-.17,2.67,2.67,0,0,0,.8,1.38,7.08,7.08,0,0,1,2.67,2.71,7.48,7.48,0,0,1,.91,3.67,8.77,8.77,0,0,1-2.33,6,7.35,7.35,0,0,1-5.73,2.62,8.27,8.27,0,0,1-4.91-1.59,5.2,5.2,0,0,1-2.22-4.49,4.4,4.4,0,0,1,.8-2.6,5.67,5.67,0,0,1,1.86-1.74,3.83,3.83,0,0,1,2.14-.55,1.89,1.89,0,0,1,1.62,1c.08.14,0,.26-.13.38a3.67,3.67,0,0,0-2.18,1.65,5.09,5.09,0,0,0-.75,2.67,3.71,3.71,0,0,0,3.86,3.86,4.31,4.31,0,0,0,3.33-1.54,5.12,5.12,0,0,0,1.37-3.51,4.67,4.67,0,0,0-2.06-3.74,3.15,3.15,0,0,0-1.85.13,2.83,2.83,0,0,0-.75-1.39,4.29,4.29,0,0,0-1.34-.8,9.82,9.82,0,0,1-3.17-1.68,3.93,3.93,0,0,1-1.28-3.24,4.35,4.35,0,0,1,1.93-3.89,7.69,7.69,0,0,1,4.32-1.28,9.48,9.48,0,0,1,2.43.27c.67.19,1.44.44,2.31.78v4.49Z" transform="translate(-179.92 -275.63)"/><path class="cls-4" d="M285.4,333a8.21,8.21,0,0,0,4.55-1.7,5.25,5.25,0,0,0,2.23-4.07c.17-.29.35-.41.52-.35a2.61,2.61,0,0,1,1.86,1.7,3.84,3.84,0,0,1-.19,2.61,7.32,7.32,0,0,1-2,2.62,7.55,7.55,0,0,1-3.5,1.69,9.57,9.57,0,0,1-3.5.3,8.27,8.27,0,0,1-2.73,5.64,9.11,9.11,0,0,1-6.15,2,7.29,7.29,0,0,1-5.93-2.76,10.63,10.63,0,0,1-2.29-6.82,8.2,8.2,0,0,1,1.27-4.64,4.65,4.65,0,0,1,4-2.27l.65-.05-.61-.13A4.74,4.74,0,0,1,271,325a4.28,4.28,0,0,1-1.05-2.88,4.63,4.63,0,0,1,.7-2.28c1.08-1.75,3-2.62,5.9-2.62a11.06,11.06,0,0,1,5.07,1l.4.17.61,6.65h-.79l-.39-1.36q-1.4-5-4.59-5.11a3.05,3.05,0,0,0-2.54,1.09,4.47,4.47,0,0,0-.79,3q.13,3.5,3.94,3.93c.5.12.74.33.74.62,0,.52-.35.7-1.05.52h-.61a3.76,3.76,0,0,0-2.67,1.14c-1.1,1.11-1.69,2.84-1.75,5.2a12.86,12.86,0,0,0,.9,5,3.9,3.9,0,0,0,3.83,2.87,4.61,4.61,0,0,0,4.39-2.19,7.93,7.93,0,0,0,1.16-4.9,7.67,7.67,0,0,1-4.2-5.73c-.29-.23-.36-.42-.22-.57a2.59,2.59,0,0,1,1.84-1.4,3.6,3.6,0,0,1,2.3.48,6.53,6.53,0,0,1,2.1,2A7.66,7.66,0,0,1,285.4,333Zm-5.82-3.15a4.93,4.93,0,0,0,2.06,2.36A6.58,6.58,0,0,0,279.58,329.82Z" transform="translate(-179.92 -275.63)"/><path class="cls-4" d="M301.76,323v6.3h5.45v.5a2.78,2.78,0,0,0-1,1.45A6.91,6.91,0,0,0,306,333h-.42a4.59,4.59,0,0,0-.9-1.91,2.76,2.76,0,0,0-2-.61h-.92c0,1.68,0,3.37,0,5.06s0,3.37,0,5.05a4.47,4.47,0,0,0,.23,1.56,7.79,7.79,0,0,0,.74,1.34h-6.13a4.92,4.92,0,0,0,.88-2.9V333a6.91,6.91,0,0,0-.21-1.74,2.78,2.78,0,0,0-1-1.45,2.81,2.81,0,0,0,1-1.43,6.91,6.91,0,0,0,.21-1.76v-2.85a3.16,3.16,0,0,0-.59-1.89H310l.8,6h-.75a12.45,12.45,0,0,0-1.85-3.53c-.7-.86-2-1.3-3.78-1.3Z" transform="translate(-179.92 -275.63)"/><path class="cls-4" d="M314.85,321.85H327l.8,6H327a8.1,8.1,0,0,0-1.72-3.67c-.72-.77-2-1.16-3.85-1.16h-1.77v6.3h5.46v.5a2.74,2.74,0,0,0-1,1.45A6.91,6.91,0,0,0,324,333h-.42a4.36,4.36,0,0,0-.9-1.91,2.75,2.75,0,0,0-2-.61h-.93V340.6c0,1.15.76,1.72,2.27,1.72a4.6,4.6,0,0,0,3.84-1.51,14.6,14.6,0,0,0,2.07-3.73h1l-1.3,6.42h-13a4.76,4.76,0,0,0,.93-2.9V333a6.91,6.91,0,0,0-.21-1.74,2.74,2.74,0,0,0-1-1.45,2.77,2.77,0,0,0,1-1.43,6.91,6.91,0,0,0,.21-1.76v-2.85A3.07,3.07,0,0,0,314.85,321.85Z" transform="translate(-179.92 -275.63)"/><path class="cls-4" d="M346.06,343.5H332.72a4.29,4.29,0,0,0,.67-1.34,6.24,6.24,0,0,0,.17-1.56l0-8.39a5.16,5.16,0,0,0-.32-1.34,2.67,2.67,0,0,0-.82-1.09,2.59,2.59,0,0,0,.78-1,7,7,0,0,0,.36-1.32v-3.69a4.28,4.28,0,0,0-.11-1,2.34,2.34,0,0,0-.48-.9h5.12a2.34,2.34,0,0,0-.46.88,4.53,4.53,0,0,0-.09,1v3.4a4.31,4.31,0,0,0,.25,1.49,2.83,2.83,0,0,0,.89,1.15,3.08,3.08,0,0,0-.89,1.19,4.1,4.1,0,0,0-.25,1.41v8.22c0,1.15.88,1.72,2.65,1.72a5,5,0,0,0,4-1.51,12.36,12.36,0,0,0,2.23-3.73h1Z" transform="translate(-179.92 -275.63)"/><path class="cls-4" d="M364.61,343.5H351.26a4.29,4.29,0,0,0,.67-1.34,5.8,5.8,0,0,0,.17-1.56l0-8.39a5.61,5.61,0,0,0-.31-1.34,2.86,2.86,0,0,0-.82-1.09,2.66,2.66,0,0,0,.77-1,5.74,5.74,0,0,0,.36-1.32v-3.69a4.31,4.31,0,0,0-.1-1,2.24,2.24,0,0,0-.49-.9h5.12a2.49,2.49,0,0,0-.46.88,4.62,4.62,0,0,0-.08,1v3.4a4.08,4.08,0,0,0,.25,1.49,2.8,2.8,0,0,0,.88,1.15,3,3,0,0,0-.88,1.19,3.88,3.88,0,0,0-.25,1.41v8.22c0,1.15.88,1.72,2.64,1.72a5.06,5.06,0,0,0,4-1.51,12.55,12.55,0,0,0,2.22-3.73h1Z" transform="translate(-179.92 -275.63)"/><path class="cls-4" d="M378.66,335.53l-.88,0a1.86,1.86,0,0,0-.76-1.22,4.4,4.4,0,0,0-3.4-.63l-1,6.88a7.22,7.22,0,0,0-.06,1.58,2.14,2.14,0,0,0,.69,1.32h-3.82a5.83,5.83,0,0,0,1.26-2.9l.8-5.87a4.55,4.55,0,0,0-.67.75c-.26-1.87.12-3.21,1.13-4l.08-.76a5.45,5.45,0,0,0-.46-.88,2.64,2.64,0,0,0,.71-1.13c.12-.81.23-1.64.34-2.48s.22-1.68.34-2.51a2.55,2.55,0,0,0-.59-1.85h9.19c-.14.31-.28.61-.4.9a1.46,1.46,0,0,0-.07.95l.8,5a2.05,2.05,0,0,0,.32.61,6,6,0,0,0,.44.48,2.77,2.77,0,0,0-.42,1.05l1.55,9.77a7.62,7.62,0,0,0,.38,1.58,3.55,3.55,0,0,0,.88,1.32h-6.29a2.64,2.64,0,0,0,.65-1.32,5.29,5.29,0,0,0,0-1.58ZM374.93,323l-.68,5.75a2.35,2.35,0,0,0,.47,1.18,2.32,2.32,0,0,0-.68.84,4.7,4.7,0,0,1,2.4.71,5.33,5.33,0,0,1,1.93,1.93l-.34-2.31a2.83,2.83,0,0,0-.8-1.17,2.38,2.38,0,0,0,.42-1.22L376.9,323Z" transform="translate(-179.92 -275.63)"/><path class="cls-4" d="M400,327.39v-.17a6,6,0,0,0-1.07-2.9,3,3,0,0,0-2.6-1.38,2.17,2.17,0,0,0-1.69.69,2.44,2.44,0,0,0-.64,1.7c0,1.18.95,2.07,2.83,2.69a3.06,3.06,0,0,0,2.23-.17,2.74,2.74,0,0,0,.8,1.38,7.11,7.11,0,0,1,2.68,2.71,7.56,7.56,0,0,1,.9,3.67,8.76,8.76,0,0,1-2.32,6,7.38,7.38,0,0,1-5.73,2.62,8.25,8.25,0,0,1-4.91-1.59,5.22,5.22,0,0,1-2.22-4.49,4.39,4.39,0,0,1,.79-2.6,5.7,5.7,0,0,1,1.87-1.74,3.81,3.81,0,0,1,2.14-.55,1.91,1.91,0,0,1,1.62,1c.08.14,0,.26-.13.37a3.7,3.7,0,0,0-2.18,1.66,5,5,0,0,0-.76,2.66,3.79,3.79,0,0,0,1.07,2.77,3.74,3.74,0,0,0,2.79,1.09,4.3,4.3,0,0,0,3.34-1.53,5.11,5.11,0,0,0,1.36-3.51,4.64,4.64,0,0,0-2.05-3.74,3.22,3.22,0,0,0-1.85.12,2.85,2.85,0,0,0-.76-1.38,4.17,4.17,0,0,0-1.34-.8,9.93,9.93,0,0,1-3.17-1.68,4,4,0,0,1-1.27-3.24,4.36,4.36,0,0,1,1.92-3.89,7.69,7.69,0,0,1,4.33-1.28,9.48,9.48,0,0,1,2.43.27,22.51,22.51,0,0,1,2.31.78v4.49Z" transform="translate(-179.92 -275.63)"/><path class="cls-3" d="M403.3,319.19H287.77a.51.51,0,0,1-.51-.52.52.52,0,0,1,.51-.52H403.3a.52.52,0,0,1,.51.52A.51.51,0,0,1,403.3,319.19Z" transform="translate(-179.92 -275.63)"/></svg>